<svg width="914" height="223" viewBox="0 0 914 223" fill="none" xmlns="http://www.w3.org/2000/svg">
<path d="M192.878 62.8987C189.851 55.3172 180.76 52.2239 173.738 56.3868L172.623 57.048C166.907 60.437 164.74 67.4605 167.164 73.6475C170.433 81.9934 172.133 90.9344 172.133 100.001C172.133 135.011 147.063 164.275 113.931 170.784V113.934H130.967C138.662 113.934 144.9 107.695 144.9 100C144.9 92.3055 138.663 86.0669 130.967 86.0669H113.931V0H99.9981C44.8578 0 0 44.8593 0 99.9997C0 112.07 2.18408 124.01 6.38757 135.208C9.39007 143.205 18.9422 146.517 26.3469 142.259C32.338 138.813 34.7462 131.555 32.349 125.074C31.0114 121.457 30.0072 117.724 29.2634 113.933H86.0653V200H99.9986C155.139 200 200 155.141 200 100C199.999 87.2321 197.563 74.6374 192.878 62.8987ZM29.2586 86.0673C34.8867 57.4526 57.4501 34.8395 86.0653 29.2171V86.0673H29.2586Z" fill="#111111"/>
<path d="M159.325 45.9294C167.28 45.9294 173.728 39.481 173.728 31.5264C173.728 23.5718 167.28 17.123 159.325 17.123C151.371 17.123 144.922 23.5718 144.922 31.5264C144.922 39.481 151.371 45.9294 159.325 45.9294Z" fill="#111111"/>
<path d="M236.149 175L290.929 14.4H341.969L398.289 175H366.169L318.429 35.74L329.649 40.58H302.149L313.589 35.74L267.389 175H236.149ZM274.429 132.32L284.329 105.92H349.449L359.129 132.32H274.429ZM409.446 175V55.54H440.026V175H409.446ZM392.726 78.42V55.54H440.026V78.42H392.726ZM420.666 41.24C414.652 41.24 410.179 39.7 407.246 36.62C404.459 33.3933 403.066 29.4333 403.066 24.74C403.066 19.7533 404.459 15.72 407.246 12.64C410.179 9.55999 414.652 8.01999 420.666 8.01999C426.679 8.01999 431.079 9.55999 433.866 12.64C436.652 15.72 438.046 19.7533 438.046 24.74C438.046 29.4333 436.652 33.3933 433.866 36.62C431.079 39.7 426.679 41.24 420.666 41.24ZM505.909 222.08C500.189 222.08 494.322 221.86 488.309 221.42C482.442 220.98 476.942 220.393 471.809 219.66V194.14C477.089 194.727 482.735 195.24 488.749 195.68C494.762 196.267 500.409 196.56 505.689 196.56C515.515 196.56 523.435 195.387 529.449 193.04C535.609 190.693 540.082 186.953 542.869 181.82C545.802 176.833 547.269 170.453 547.269 162.68V139.14L553.869 124.18C553.429 135.18 551.155 144.567 547.049 152.34C542.942 159.967 537.369 165.833 530.329 169.94C523.289 173.9 515.149 175.88 505.909 175.88C497.695 175.88 490.215 174.34 483.469 171.26C476.869 168.18 471.149 163.927 466.309 158.5C461.615 153.073 457.949 146.693 455.309 139.36C452.669 132.027 451.349 124.18 451.349 115.82V111.2C451.349 102.84 452.669 95.0667 455.309 87.88C458.095 80.5467 461.982 74.1667 466.969 68.74C471.955 63.3133 477.895 59.1333 484.789 56.2C491.682 53.2667 499.309 51.8 507.669 51.8C517.495 51.8 526.002 53.9267 533.189 58.18C540.522 62.4333 546.242 68.5933 550.349 76.66C554.455 84.7267 556.729 94.6267 557.169 106.36L551.889 107.24V55.54H576.089V160.92C576.089 175.44 573.595 187.173 568.609 196.12C563.622 205.067 555.922 211.593 545.509 215.7C535.242 219.953 522.042 222.08 505.909 222.08ZM514.709 149.7C520.575 149.7 525.929 148.38 530.769 145.74C535.609 143.1 539.495 139.287 542.429 134.3C545.362 129.313 546.829 123.3 546.829 116.26V108.56C546.829 101.813 545.289 96.0933 542.209 91.4C539.275 86.7067 535.389 83.1867 530.549 80.84C525.709 78.3467 520.429 77.1 514.709 77.1C508.255 77.1 502.535 78.64 497.549 81.72C492.709 84.6533 488.895 88.8333 486.109 94.26C483.322 99.6867 481.929 106.14 481.929 113.62C481.929 120.953 483.322 127.333 486.109 132.76C488.895 138.187 492.709 142.367 497.549 145.3C502.535 148.233 508.255 149.7 514.709 149.7ZM650.864 179.18C640.304 179.18 630.991 177.493 622.924 174.12C614.858 170.747 608.038 166.2 602.464 160.48C596.891 154.613 592.638 148.013 589.704 140.68C586.918 133.347 585.524 125.72 585.524 117.8V113.18C585.524 104.967 586.991 97.1933 589.924 89.86C593.004 82.38 597.331 75.78 602.904 70.06C608.624 64.1933 615.518 59.6467 623.584 56.42C631.651 53.0467 640.744 51.36 650.864 51.36C660.984 51.36 670.078 53.0467 678.144 56.42C686.211 59.6467 693.031 64.1933 698.604 70.06C704.324 75.78 708.651 82.38 711.584 89.86C714.518 97.1933 715.984 104.967 715.984 113.18V117.8C715.984 125.72 714.518 133.347 711.584 140.68C708.798 148.013 704.618 154.613 699.044 160.48C693.471 166.2 686.651 170.747 678.584 174.12C670.518 177.493 661.278 179.18 650.864 179.18ZM650.864 153C658.344 153 664.651 151.387 669.784 148.16C674.918 144.787 678.804 140.313 681.444 134.74C684.084 129.02 685.404 122.567 685.404 115.38C685.404 108.047 684.011 101.593 681.224 96.02C678.584 90.3 674.624 85.8267 669.344 82.6C664.211 79.2267 658.051 77.54 650.864 77.54C643.678 77.54 637.444 79.2267 632.164 82.6C627.031 85.8267 623.071 90.3 620.284 96.02C617.498 101.593 616.104 108.047 616.104 115.38C616.104 122.567 617.424 129.02 620.064 134.74C622.851 140.313 626.811 144.787 631.944 148.16C637.078 151.387 643.384 153 650.864 153ZM726.761 175V55.54H750.961V106.14H750.301C750.301 88.98 753.968 76 761.301 67.2C768.634 58.4 779.414 54 793.641 54H798.041V80.62H789.681C779.414 80.62 771.421 83.4067 765.701 88.98C760.128 94.4067 757.341 102.327 757.341 112.74V175H726.761ZM874.235 175V139.58H869.175V100.2C869.175 93.3067 867.488 88.1733 864.115 84.8C860.741 81.4267 855.535 79.74 848.495 79.74C844.828 79.74 840.428 79.8133 835.295 79.96C830.161 80.1067 824.955 80.3267 819.675 80.62C814.541 80.7667 809.921 80.9867 805.815 81.28V55.32C809.188 55.0267 813.001 54.7333 817.255 54.44C821.508 54.1467 825.835 54 830.235 54C834.781 53.8533 839.035 53.78 842.995 53.78C855.315 53.78 865.508 55.3933 873.575 58.62C881.788 61.8467 887.948 66.9067 892.055 73.8C896.308 80.6933 898.435 89.7133 898.435 100.86V175H874.235ZM835.735 178.08C827.081 178.08 819.455 176.54 812.855 173.46C806.401 170.38 801.341 165.98 797.675 160.26C794.155 154.54 792.395 147.647 792.395 139.58C792.395 130.78 794.521 123.593 798.775 118.02C803.175 112.447 809.261 108.267 817.035 105.48C824.955 102.693 834.195 101.3 844.755 101.3H872.475V119.56H844.315C837.275 119.56 831.848 121.32 828.035 124.84C824.368 128.213 822.535 132.613 822.535 138.04C822.535 143.467 824.368 147.867 828.035 151.24C831.848 154.613 837.275 156.3 844.315 156.3C848.568 156.3 852.455 155.567 855.975 154.1C859.641 152.487 862.648 149.847 864.995 146.18C867.488 142.367 868.881 137.233 869.175 130.78L876.655 139.36C875.921 147.72 873.868 154.76 870.495 160.48C867.268 166.2 862.721 170.6 856.855 173.68C851.135 176.613 844.095 178.08 835.735 178.08Z" fill="#111111"/>
</svg>
