<svg width="14" height="14" viewBox="0 0 14 14" fill="none" xmlns="http://www.w3.org/2000/svg">
<g clip-path="url(#clip0_18915_1404)">
<path d="M7.00582 14.0042C6.80719 14.0053 6.61272 13.9473 6.4472 13.8375C6.28168 13.7277 6.15261 13.5711 6.07644 13.3877C6.00028 13.2042 5.98047 13.0022 6.01954 12.8075C6.05861 12.6128 6.15479 12.4341 6.29582 12.2942L11.5958 7.00418L6.29582 1.71418C6.13199 1.52288 6.04638 1.2768 6.0561 1.02512C6.06583 0.773448 6.17016 0.534709 6.34825 0.356614C6.52635 0.17852 6.76509 0.0741876 7.01676 0.0644665C7.26844 0.0547453 7.51451 0.140351 7.70582 0.304178L13.7058 6.30418C13.8921 6.49154 13.9966 6.74499 13.9966 7.00918C13.9966 7.27336 13.8921 7.52682 13.7058 7.71418L7.70582 13.7142C7.51955 13.8989 7.26816 14.0031 7.00582 14.0042Z" fill="#E94625"/>
<path d="M1.00582 14.0041C0.807191 14.0052 0.612722 13.9472 0.447203 13.8374C0.281683 13.7276 0.152612 13.571 0.0764449 13.3876C0.000278115 13.2041 -0.0195334 13.0022 0.0195363 12.8074C0.058606 12.6127 0.154787 12.434 0.295816 12.2941L5.59582 7.00409L0.295816 1.71409C0.107512 1.52579 0.00172403 1.27039 0.00172403 1.00409C0.00172403 0.73779 0.107512 0.482395 0.295816 0.294092C0.48412 0.105788 0.739514 1.9841e-09 1.00582 0C1.27212 -1.9841e-09 1.52751 0.105788 1.71582 0.294092L7.71582 6.29409C7.90207 6.48145 8.00661 6.73491 8.00661 6.99909C8.00661 7.26328 7.90207 7.51673 7.71582 7.70409L1.71582 13.7041C1.6232 13.7986 1.51276 13.8738 1.39088 13.9252C1.26901 13.9767 1.13812 14.0035 1.00582 14.0041Z" fill="#E94625"/>
</g>
<defs>
<clipPath id="clip0_18915_1404">
<rect width="14" height="14" fill="white"/>
</clipPath>
</defs>
</svg>
