<svg width="140" height="140" viewBox="0 0 140 140" fill="none" xmlns="http://www.w3.org/2000/svg">
<g opacity="0.8">
<path opacity="0.7" d="M29.5269 50.0013V49.4899C29.5269 39.908 41.1407 35.1092 47.9332 41.8847L91.0035 84.8476V3.39959C84.2229 1.19588 76.9862 0 69.4683 0C31.1019 0 0 31.0245 0 69.2951C0 92.7349 11.6692 113.454 29.5269 125.994V50.0013Z" fill="#E4E4E4"/>
<path opacity="0.2" d="M110.477 14.0059V93.8629C110.477 96.9728 109.699 99.9005 108.33 102.467C105.238 108.27 99.1181 112.223 92.0703 112.223L49 69.2604V136.6C55.7806 138.804 63.0173 140 70.5353 140C108.902 140 140.004 108.975 140.004 70.7049C140.004 47.2651 128.334 26.5458 110.477 14.0059Z" fill="black"/>
</g>
</svg>
