<svg width="15" height="15" viewBox="0 0 15 15" fill="none" xmlns="http://www.w3.org/2000/svg">
<path d="M13.834 0.509766C14.0045 0.520229 14.1653 0.593057 14.2861 0.713867C14.3769 0.804614 14.4403 0.917967 14.4707 1.04102L14.4902 1.16602C14.5408 2.01938 14.4637 4.14507 12.7725 5.96289L12.6035 6.1377L8.9082 9.83301C8.71026 10.0279 8.59217 10.2898 8.57715 10.5674C8.56204 10.847 8.65271 11.1221 8.83105 11.3379L8.83887 11.3467C8.93775 11.4609 9.05906 11.5539 9.19531 11.6191C9.33159 11.6844 9.47986 11.7211 9.63086 11.7266C9.78195 11.732 9.93257 11.7058 10.0732 11.6504C10.2139 11.595 10.3414 11.5112 10.4482 11.4043L12.0996 9.75293V11.2266C12.0998 11.3187 12.082 11.41 12.0469 11.4951C12.0293 11.5376 12.0078 11.5781 11.9824 11.6162L11.8955 11.7227L9.32129 14.2949L9.32031 14.2959C9.25577 14.3606 9.1792 14.4123 9.09473 14.4473C9.01024 14.4822 8.91956 14.5002 8.82812 14.5H8.82715C8.75116 14.4999 8.6756 14.4879 8.60352 14.4639L8.60156 14.4629C8.47848 14.4221 8.3692 14.3476 8.28613 14.248C8.22387 14.1734 8.17793 14.0869 8.15137 13.9941L8.13184 13.8994L7.72852 11.0127L7.70508 10.8467L7.58691 10.7285L4.27148 7.41211L4.15234 7.29395L3.98633 7.27051L1.10156 6.86816H1.10254C0.973722 6.84995 0.851926 6.79614 0.751953 6.71289C0.651972 6.62962 0.577348 6.5199 0.536133 6.39648C0.494918 6.27307 0.488673 6.14031 0.518555 6.01367C0.54845 5.88719 0.613173 5.77158 0.705078 5.67969L3.27832 3.10547V3.10449C3.3431 3.03944 3.42099 2.98812 3.50586 2.95312C3.59065 2.91821 3.68174 2.89991 3.77344 2.90039H5.24609L3.5957 4.55176C3.38959 4.75826 3.2742 5.03832 3.27441 5.33008C3.27467 5.62191 3.39111 5.90222 3.59766 6.1084C3.80416 6.31434 4.08432 6.42995 4.37598 6.42969C4.52036 6.42951 4.66353 6.40108 4.79688 6.3457C4.89682 6.30419 4.98992 6.24813 5.07324 6.17969L5.15332 6.10645L8.8623 2.39453C10.4852 0.771886 12.4018 0.506018 13.4443 0.5L13.834 0.509766ZM3.30957 9.6084C3.32252 9.60796 3.3355 9.60978 3.34766 9.61426C3.3598 9.6188 3.37133 9.62598 3.38086 9.63477C3.39048 9.64373 3.39884 9.65503 3.4043 9.66699C3.4097 9.6789 3.41263 9.692 3.41309 9.70508C3.41352 9.71801 3.4117 9.73102 3.40723 9.74316C3.40262 9.75548 3.39471 9.76675 3.38574 9.77637C3.37679 9.78596 3.36642 9.79436 3.35449 9.7998C2.73731 10.0811 1.53706 10.928 1.33008 13.126L1.27344 13.7275L1.875 13.6709C4.07076 13.4641 4.92043 12.2657 5.20117 11.6465C5.20661 11.6346 5.21406 11.6232 5.22363 11.6143C5.23317 11.6054 5.24464 11.5984 5.25684 11.5938C5.26915 11.5891 5.28276 11.5874 5.2959 11.5879C5.30903 11.5884 5.32204 11.5912 5.33398 11.5967C5.34576 11.6021 5.35636 11.6097 5.36523 11.6191C5.37408 11.6286 5.38114 11.6402 5.38574 11.6523C5.39034 11.6647 5.39304 11.6783 5.39258 11.6914C5.39212 11.7042 5.389 11.7168 5.38379 11.7285C5.24025 12.0423 4.92176 12.5816 4.28809 13.042C3.65952 13.4986 2.68861 13.9014 1.19922 13.9014C1.17278 13.9013 1.14763 13.8907 1.12891 13.8721C1.11022 13.8534 1.0997 13.8282 1.09961 13.8018C1.09961 12.3124 1.50239 11.3415 1.95898 10.7129C2.36185 10.1584 2.82489 9.84548 3.14453 9.67969L3.27148 9.61719C3.28342 9.61176 3.29646 9.60886 3.30957 9.6084Z" stroke="#111111"/>
</svg>
