<svg width="40" height="40" viewBox="0 0 40 40" fill="none" xmlns="http://www.w3.org/2000/svg">
<path d="M38.5755 12.5797C37.9702 11.0634 36.152 10.4448 34.7476 11.2774L34.5246 11.4096C33.3813 12.0874 32.9479 13.4921 33.4327 14.7295C34.0866 16.3987 34.4267 18.1869 34.4267 20.0001C34.4267 27.0022 29.4127 32.8549 22.7863 34.1567V22.7867H26.1934C27.7324 22.7867 28.9801 21.5391 28.9801 20C28.9801 18.4611 27.7325 17.2134 26.1934 17.2134H22.7863V0H19.9996C8.97156 0 0 8.97186 0 20C0 22.4141 0.436816 24.802 1.27751 27.0415C1.87801 28.641 3.78843 29.3034 5.26938 28.4518C6.4676 27.7627 6.94924 26.3111 6.4698 25.0147C6.20227 24.2915 6.00144 23.5449 5.85268 22.7866H17.2131V40H19.9997C31.0279 40 40 31.0282 40 20C39.9999 17.4464 39.5126 14.9275 38.5755 12.5797ZM5.85172 17.2135C6.97733 11.4905 11.49 6.9679 17.2131 5.84343V17.2135H5.85172Z" fill="white"/>
<path d="M31.8728 9.18706C33.4638 9.18706 34.7534 7.89737 34.7534 6.30645C34.7534 4.71553 33.4638 3.42578 31.8728 3.42578C30.2819 3.42578 28.9922 4.71553 28.9922 6.30645C28.9922 7.89737 30.2819 9.18706 31.8728 9.18706Z" fill="white"/>
</svg>
