<svg width="40" height="40" viewBox="0 0 40 40" fill="none" xmlns="http://www.w3.org/2000/svg">
<path d="M35.4022 9.12047L20.2422 2.04047C20.0822 1.96047 19.8822 1.96047 19.7222 2.04047L4.60219 9.12047C4.40219 9.20047 4.24219 9.44047 4.24219 9.68047V16.1605C4.24219 27.7605 9.92219 35.7205 19.8822 37.9605H20.0022C20.0022 37.9605 20.0822 37.9605 20.1222 37.9605C30.0422 35.6805 35.7622 27.7605 35.7622 16.1605V9.68047C35.7622 9.44047 35.6422 9.24047 35.4022 9.12047ZM28.3222 32.5205C26.2422 34.4405 23.6422 35.8005 20.6022 36.6005V30.5205H21.8422C22.1622 30.5205 22.4422 30.2405 22.4422 29.9205V28.5605C23.1222 28.3605 23.7222 28.1205 24.3222 27.7605L25.2822 28.7205C25.5222 28.9605 25.8822 28.9605 26.1222 28.7205L27.0022 27.8405L28.3222 29.1605V32.5205ZM13.8822 28.7205C14.1222 28.9605 14.5222 28.9605 14.7222 28.7205L15.6822 27.7605C16.2822 28.0805 16.9222 28.3605 17.5622 28.5605V29.9205C17.5622 30.2405 17.8422 30.5205 18.1622 30.5205H19.4022V36.6405C16.3622 35.8405 13.8022 34.4405 11.6822 32.5605V29.2005L13.0022 27.8805L13.8822 28.7205ZM27.5222 21.7205C27.3222 22.5605 27.0022 23.3605 26.5222 24.1205C26.3622 24.3605 26.4022 24.6805 26.6022 24.8805L27.4422 25.7205L25.6822 27.4805L24.8422 26.6405C24.6422 26.4405 24.3222 26.4005 24.0822 26.5605C23.3622 27.0405 22.5222 27.3605 21.6822 27.5605C21.4022 27.6405 21.2022 27.8805 21.2022 28.1605V29.3605H18.7222V28.1605C18.7222 27.8805 18.5222 27.6405 18.2422 27.5605C17.4022 27.3605 16.5622 27.0405 15.8422 26.5605C15.6022 26.4005 15.2822 26.4405 15.0822 26.6405L14.2422 27.4805L12.4822 25.7205L13.3222 24.8805C13.5222 24.6805 13.5622 24.3605 13.4022 24.1205C12.9222 23.4005 12.6022 22.5605 12.4022 21.7205C12.3222 21.4405 12.0822 21.2405 11.8022 21.2405H10.6022V18.7605H11.8022C12.0822 18.7605 12.3222 18.5605 12.4022 18.2805C12.6022 17.4405 12.9222 16.6005 13.4022 15.8805C13.5622 15.6405 13.5222 15.3205 13.3222 15.1205L12.4822 14.2805L14.2422 12.5205L15.0822 13.3605C15.2822 13.5605 15.6022 13.6005 15.8422 13.4405C16.5622 12.9605 17.4022 12.6405 18.2422 12.4405C18.5222 12.3605 18.7222 12.1205 18.7222 11.8405V10.6405H21.2022V11.8405C21.2022 12.1205 21.4022 12.3605 21.6822 12.4405C22.5222 12.6405 23.3622 12.9605 24.0822 13.4405C24.3222 13.6005 24.6422 13.5605 24.8422 13.3605L25.6822 12.5205L27.4422 14.2805L26.6022 15.1205C26.4022 15.3205 26.3622 15.6405 26.5222 15.8805C27.0022 16.6005 27.3222 17.4405 27.5222 18.2805C27.6022 18.5605 27.8422 18.7605 28.1222 18.7605H29.3222V21.2405H28.1222C27.8022 21.2405 27.5622 21.4405 27.5222 21.7205ZM11.6822 7.12047L19.4022 3.52047V9.48047H18.1622C17.8422 9.48047 17.5622 9.76047 17.5622 10.0805V11.4405C16.8822 11.6405 16.2822 11.8805 15.6822 12.2405L14.7222 11.2805C14.4822 11.0405 14.1222 11.0405 13.8822 11.2805L13.0022 12.1605L11.6822 10.8405V7.12047ZM26.1222 11.2805C25.8822 11.0405 25.5222 11.0405 25.2822 11.2805L24.3222 12.2405C23.7222 11.9205 23.0822 11.6405 22.4422 11.4405V10.0805C22.4422 9.76047 22.1622 9.48047 21.8422 9.48047H20.6022V3.56047L28.3222 7.16047V10.8805L27.0022 12.2005L26.1222 11.2805ZM5.44219 16.1605V10.0405L10.4822 7.68047V11.0805C10.4822 11.2405 10.5622 11.4005 10.6422 11.5205L12.1222 13.0005L11.2422 13.8805C11.1222 14.0005 11.0822 14.1605 11.0822 14.3205C11.0822 14.4805 11.1622 14.6405 11.2422 14.7605L12.2022 15.7205C11.8822 16.3205 11.6022 16.9605 11.4022 17.6005H10.0422C9.72219 17.6005 9.44219 17.8805 9.44219 18.2005V21.8805C9.44219 22.2005 9.72219 22.4805 10.0422 22.4805H11.3622C11.5622 23.1605 11.8022 23.7605 12.1622 24.3605L11.2022 25.3205C11.0822 25.4405 11.0422 25.6005 11.0422 25.7605C11.0422 25.9205 11.1222 26.0805 11.2022 26.2005L12.0822 27.0805L10.6022 28.5605C10.4822 28.6805 10.4422 28.8405 10.4422 29.0005V31.4005C7.20219 27.6405 5.44219 22.4805 5.44219 16.1605ZM34.5622 16.1605C34.5622 22.4805 32.8022 27.6405 29.5222 31.3205V28.9205C29.5222 28.7605 29.4422 28.6005 29.3622 28.4805L27.8822 27.0005L28.7622 26.1205C28.8822 26.0005 28.9222 25.8405 28.9222 25.6805C28.9222 25.5205 28.8422 25.3605 28.7622 25.2405L27.8022 24.2805C28.1222 23.6805 28.4022 23.0405 28.6022 22.4005H29.9622C30.2822 22.4005 30.5622 22.1205 30.5622 21.8005V18.1205C30.5622 17.8005 30.2822 17.5205 29.9622 17.5205H28.6022C28.4022 16.8405 28.1622 16.2405 27.8022 15.6405L28.7622 14.6805C28.8822 14.5605 28.9222 14.4005 28.9222 14.2405C28.9222 14.0805 28.8422 13.9205 28.7622 13.8005L27.8822 12.9205L29.3622 11.4405C29.4822 11.3205 29.5222 11.1605 29.5222 11.0005V7.60047L34.5622 9.96047V16.1605Z" fill="#111111"/>
<path d="M18.8856 16.4801C18.8056 16.2801 18.5656 16.1201 18.3256 16.1201C18.0856 16.1201 17.8856 16.2801 17.7656 16.4801L15.0456 22.8401C14.9256 23.1601 15.0456 23.4801 15.3656 23.6401C15.4456 23.6801 15.5256 23.6801 15.6056 23.6801C15.8456 23.6801 16.0456 23.5601 16.1656 23.3201L16.7656 21.9201H19.9256L20.5256 23.3201C20.6456 23.6401 21.0056 23.7601 21.3256 23.6401C21.6456 23.5201 21.7656 23.1601 21.6456 22.8401L18.8856 16.4801ZM17.2856 20.7201L18.3656 18.2401L19.4456 20.7201H17.2856Z" fill="#111111"/>
<path d="M24.1625 16.1201C23.8425 16.1201 23.5625 16.4001 23.5625 16.7201V23.0801C23.5625 23.4001 23.8425 23.6801 24.1625 23.6801C24.4825 23.6801 24.7625 23.4001 24.7625 23.0801V16.7201C24.7625 16.4001 24.4825 16.1201 24.1625 16.1201Z" fill="#111111"/>
</svg>
