<svg width="40" height="40" viewBox="0 0 40 40" fill="none" xmlns="http://www.w3.org/2000/svg">
<path fill-rule="evenodd" clip-rule="evenodd" d="M19.1557 33.7454C15.9849 33.6579 12.9641 32.3608 10.7182 30.1129C8.38905 27.7846 7.08073 24.6258 7.08073 21.3329C7.08073 20.8729 6.70573 20.4996 6.2474 20.4996C5.78906 20.4996 5.41406 20.8729 5.41406 21.3329C5.41406 25.0679 6.89736 28.6504 9.53902 31.2917C12.1015 33.8529 15.5474 35.3258 19.1599 35.4125C19.1641 37.3962 19.1641 39.1667 19.1641 39.1667C19.1641 39.6267 19.5391 40 19.9974 40C20.4557 40 20.8307 39.6267 20.8307 39.1667C20.8307 39.1667 20.8182 32.3387 20.8099 31.5146C20.8099 30.2875 19.9098 29.2467 18.6973 29.0658C14.7098 28.4417 11.6641 24.9933 11.6641 20.8333V10C11.6641 5.3975 15.3932 1.66667 19.9974 1.66667C22.7432 1.66667 25.1808 2.99542 26.6974 5.04583L26.6557 5.06125C26.1599 5.24583 25.8307 5.72 25.8307 6.25C25.8307 6.78 26.1599 7.25417 26.6557 7.43875L27.9224 7.90875L28.2391 8.76417C28.3016 9.1675 28.3307 9.58 28.3307 10V11.07L25.7266 10.1029L24.5682 6.98375C24.3141 6.29208 23.6516 5.83333 22.9141 5.83333C22.1766 5.83333 21.5141 6.29208 21.2599 6.98375L20.1016 10.1029L16.9807 11.2621C16.2891 11.5187 15.8307 12.1788 15.8307 12.9167C15.8307 13.6546 16.2891 14.3146 16.9807 14.5712L20.1016 15.7304L21.2599 18.8496C21.5141 19.5412 22.1766 20 22.9141 20C23.6516 20 24.3141 19.5412 24.5682 18.8496L25.7266 15.7304L28.3307 14.7633V20.8333C28.3307 24.0721 26.4849 26.8792 23.7849 28.2583C23.3766 28.4679 23.2141 28.9704 23.4224 29.3796C23.6307 29.7892 24.1349 29.9517 24.5432 29.7425C27.7807 28.0875 29.9974 24.7192 29.9974 20.8333C29.9974 20.8333 29.9974 9.9525 29.9974 9.92917C30.3474 9.80708 30.6349 9.535 30.7683 9.17333L31.2391 7.90875L32.5057 7.43875C33.0016 7.25417 33.3307 6.78 33.3307 6.25C33.3307 5.72 33.0016 5.24583 32.5057 5.06125L31.2391 4.59125L30.7683 3.32667C30.5849 2.82958 30.1099 2.5 29.5807 2.5C29.0516 2.5 28.5765 2.82958 28.3932 3.32667L28.0932 4.12917C26.2765 1.62708 23.3266 0 19.9974 0C14.4724 0 9.9974 4.47708 9.9974 10V20.8333C9.9974 25.8267 13.6557 29.9646 18.4391 30.7129C18.4432 30.7133 18.4474 30.7137 18.4474 30.7142C18.8474 30.7725 19.1432 31.1154 19.1432 31.5196V31.5258C19.1515 32.1579 19.1516 32.9333 19.1557 33.7454ZM24.3932 34.8667C26.6641 34.2125 28.7558 32.9921 30.4558 31.2917C33.0974 28.6504 34.5807 25.0679 34.5807 21.3329C34.5807 20.8729 34.2057 20.4996 33.7474 20.4996C33.2891 20.4996 32.9141 20.8729 32.9141 21.3329C32.9141 24.6258 31.6057 27.7846 29.2766 30.1129C27.7766 31.6121 25.9349 32.6883 23.9349 33.265C23.4932 33.3925 23.2349 33.8546 23.3641 34.2962C23.4891 34.7383 23.9516 34.9937 24.3932 34.8667ZM28.3307 12.9167C28.3307 12.9579 28.3058 12.9946 28.2683 13.0092L24.7891 14.3008C24.5599 14.3854 24.3849 14.5646 24.2974 14.7921L23.0057 18.2692C22.9932 18.3075 22.9557 18.3333 22.9141 18.3333C22.8724 18.3333 22.8349 18.3075 22.8224 18.2692L21.5307 14.7921C21.4432 14.5646 21.2682 14.3854 21.0391 14.3008L17.5599 13.0092C17.5224 12.9946 17.4974 12.9579 17.4974 12.9167C17.4974 12.8754 17.5224 12.8387 17.5599 12.8242L21.0391 11.5325C21.2682 11.4479 21.4432 11.2688 21.5307 11.0413L22.8224 7.56417C22.8349 7.52583 22.8724 7.5 22.9141 7.5C22.9557 7.5 22.9932 7.52583 23.0057 7.56417L24.2974 11.0413C24.3849 11.2688 24.5599 11.4479 24.7891 11.5325L28.2683 12.8242C28.3058 12.8387 28.3307 12.8754 28.3307 12.9167ZM28.2432 6.25L28.8599 6.47958C29.0891 6.56375 29.2682 6.74292 29.3515 6.97042L29.5807 7.58792L29.8099 6.97042C29.8932 6.74292 30.0724 6.56375 30.3016 6.47958L30.9182 6.25L30.3016 6.02042C30.0724 5.93625 29.8932 5.75708 29.8099 5.52958L29.5807 4.91208L29.3515 5.52958C29.2682 5.75708 29.0891 5.93625 28.8599 6.02042L28.2683 6.24125C28.2599 6.24417 28.2516 6.24708 28.2432 6.25Z" fill="#111111"/>
</svg>
