<svg width="40" height="40" viewBox="0 0 40 40" fill="none" xmlns="http://www.w3.org/2000/svg">
<path fill-rule="evenodd" clip-rule="evenodd" d="M16.3911 23.1223H14.7578L17.8794 14.3926H19.6338L22.7554 23.1223H21.116L20.3779 20.8657H17.1292L16.3911 23.1223ZM18.7748 15.9473H18.7385L17.5225 19.6618H19.9847L18.7748 15.9473Z" fill="#111111"/>
<path d="M25.2484 23.1223H23.6875V14.3926H25.2484V23.1223Z" fill="#111111"/>
<path fill-rule="evenodd" clip-rule="evenodd" d="M3.03125 20.382C3.03125 17.24 5.2857 14.6245 8.26523 14.0649C8.22499 13.7309 8.20428 13.3909 8.20428 13.046C8.20428 8.39091 11.978 4.61719 16.6331 4.61719C19.7315 4.61719 22.4394 6.28893 23.904 8.77963C24.2786 8.70623 24.6658 8.66777 25.062 8.66777C27.7915 8.66777 30.0945 10.4938 30.8162 12.9909C34.2786 13.3766 36.971 16.3133 36.971 19.8788C36.971 23.666 33.9333 26.7439 30.1615 26.8085V26.8096H20.7149V29.1934H22.1436C22.6696 29.1934 23.096 29.6199 23.096 30.1458V31.5963H28.7704V30.1458C28.7704 29.6199 29.1967 29.1934 29.7227 29.1934H34.0081C34.5341 29.1934 34.9604 29.6199 34.9604 30.1458V34.4312C34.9604 34.9572 34.5341 35.3836 34.0081 35.3836H29.7227C29.1967 35.3836 28.7704 34.9572 28.7704 34.4312V33.0249H23.096V34.4312C23.096 34.9572 22.6696 35.3836 22.1436 35.3836H17.8583C17.3323 35.3836 16.9059 34.9572 16.9059 34.4312V33.0249H11.2317V34.4313C11.2317 34.9573 10.8053 35.3837 10.2793 35.3837H5.99395C5.46797 35.3837 5.04157 34.9573 5.04157 34.4313V30.1459C5.04157 29.6199 5.46797 29.1935 5.99395 29.1935H10.2793C10.8053 29.1935 11.2317 29.6199 11.2317 30.1459V31.5963H16.9059V30.1458C16.9059 29.6199 17.3323 29.1934 17.8583 29.1934H19.2864V26.8096H9.36953C5.86083 26.7618 3.03125 23.902 3.03125 20.382ZM30.1369 25.3802L30.0886 25.381H30.0419H30.0402H30.0384H9.46054H9.45889H9.45724H9.42378L9.38899 25.3805C6.66054 25.3434 4.45982 23.1196 4.45982 20.382C4.45982 17.9399 6.2124 15.9039 8.52891 15.469L9.84359 15.222L9.68359 13.894C9.65016 13.6166 9.63283 13.3337 9.63283 13.046C9.63283 9.17988 12.767 6.04576 16.6331 6.04576C19.2046 6.04576 21.454 7.43148 22.6725 9.50377L23.1856 10.3761L24.1786 10.1816C24.4633 10.1258 24.7585 10.0963 25.062 10.0963C27.1384 10.0963 28.894 11.4852 29.4437 13.3875L29.7088 14.3049L30.658 14.4107C33.4053 14.7167 35.5424 17.0492 35.5424 19.8788C35.5424 22.8853 33.1308 25.3288 30.1369 25.3802ZM18.3344 30.622V33.955H21.6674V30.622H18.3344ZM6.47015 33.9551V30.622H9.80312V33.9551H6.47015ZM30.1989 30.622V33.955H33.5319V30.622H30.1989Z" fill="#111111"/>
</svg>
