<svg width="44" height="44" viewBox="0 0 44 44" fill="none" xmlns="http://www.w3.org/2000/svg">
<path d="M32.5789 42.2467C32.2627 42.2467 31.9808 42.0267 31.9052 41.7035C30.4889 35.2479 32.2352 30.9716 33.9196 26.8398C35.3977 23.2166 36.7933 19.7929 36.0233 15.0216C34.7239 7.01914 30.2277 3.13477 22.2733 3.13477C15.0546 3.13477 9.18332 9.00602 9.18332 16.2248C9.18332 17.5929 9.39644 18.9473 9.80894 20.2398C9.87082 20.3979 9.87769 20.5766 9.80894 20.7485L7.77394 25.9323C7.71207 26.0835 7.76707 26.2004 7.80832 26.2623C7.84957 26.3173 7.93207 26.4204 8.09707 26.4204L10.2077 26.4891C10.5239 26.496 10.7921 26.7229 10.8539 27.0323L12.1121 32.8004C12.3802 34.0173 13.5146 34.8285 14.7521 34.691L22.1152 33.8385C22.3421 33.7423 23.7927 33.0341 24.6864 30.0573C24.7964 29.6929 25.1814 29.4866 25.5458 29.5966C25.9102 29.7066 26.1164 30.0916 26.0064 30.456C24.7896 34.4848 22.5483 35.1516 22.4521 35.1791C22.4177 35.186 22.3833 35.1929 22.3489 35.1998L14.9102 36.0591C12.9646 36.286 11.1839 35.0073 10.7714 33.096L9.62332 27.8435L8.04894 27.7885C7.48519 27.7679 6.96957 27.4791 6.66019 27.0116C6.35082 26.5441 6.28894 25.9529 6.49519 25.4304L8.44082 20.4735C8.02144 19.0985 7.80832 17.6685 7.80832 16.2248C7.80832 8.24977 14.2983 1.75977 22.2733 1.75977C30.8946 1.75977 35.9752 6.14602 37.3846 14.8016C38.2233 19.9579 36.6833 23.7185 35.1983 27.3554C33.5896 31.2948 31.9258 35.3716 33.2527 41.4079C33.3352 41.7791 33.1014 42.1435 32.7302 42.226C32.6752 42.2398 32.6271 42.2467 32.5789 42.2467Z" fill="#111111"/>
<path d="M20.0969 42.2463C20.0075 42.2463 19.9113 42.2257 19.8219 42.1913C19.4713 42.04 19.3131 41.6344 19.4644 41.2838C20.7981 38.2244 18.5088 35.4538 18.4125 35.3369C18.165 35.0482 18.2063 34.615 18.495 34.3675C18.7838 34.12 19.2169 34.1544 19.4644 34.4432C19.5881 34.5875 22.4138 37.9769 20.7294 41.8269C20.6125 42.0882 20.3581 42.2463 20.0969 42.2463Z" fill="#111111"/>
<path d="M27.1509 22.1517H18.5434C17.0722 22.1517 15.8828 20.9555 15.8828 19.4911V11.688C15.8828 10.2167 17.0791 9.02734 18.5434 9.02734H27.1441C28.6153 9.02734 29.8047 10.2236 29.8047 11.688V19.4911C29.8116 20.9555 28.6153 22.1517 27.1509 22.1517ZM18.5434 10.3955C17.8353 10.3955 17.2578 10.973 17.2578 11.6811V19.4842C17.2578 20.1923 17.8353 20.7698 18.5434 20.7698H27.1441C27.8522 20.7698 28.4297 20.1923 28.4297 19.4842V11.688C28.4297 10.9798 27.8522 10.4023 27.1441 10.4023H18.5434V10.3955Z" fill="#111111"/>
<path d="M23.7999 18.6591C23.4767 18.6591 23.188 18.4323 23.1261 18.1023L22.1636 13.1591H21.2767L20.3142 18.1023C20.2386 18.4735 19.888 18.721 19.5099 18.6454C19.1386 18.5698 18.8911 18.2123 18.9667 17.841L19.943 12.8154C20.0599 12.2173 20.5824 11.791 21.1874 11.791H22.253C22.858 11.791 23.3874 12.2241 23.4974 12.8223L24.4736 17.8479C24.5492 18.2191 24.3017 18.5835 23.9305 18.6523C23.8892 18.6591 23.8411 18.6591 23.7999 18.6591Z" fill="#111111"/>
<path d="M23.2656 15.9092H20.1719C19.7937 15.9092 19.4844 15.5998 19.4844 15.2217C19.4844 14.8436 19.7937 14.5342 20.1719 14.5342H23.2656C23.6438 14.5342 23.9531 14.8436 23.9531 15.2217C23.9531 15.5998 23.6506 15.9092 23.2656 15.9092Z" fill="#111111"/>
<path d="M26.0469 18.6593C25.6687 18.6593 25.3594 18.3499 25.3594 17.9718V12.623C25.3594 12.2449 25.6687 11.9355 26.0469 11.9355C26.425 11.9355 26.7344 12.2449 26.7344 12.623V17.9718C26.7344 18.3499 26.4319 18.6593 26.0469 18.6593Z" fill="#111111"/>
<path d="M21.0312 10.3955C20.6531 10.3955 20.3438 10.0861 20.3438 9.70797V6.79297C20.3438 6.41484 20.6531 6.10547 21.0312 6.10547C21.4094 6.10547 21.7188 6.41484 21.7188 6.79297V9.70797C21.7188 10.0861 21.4094 10.3955 21.0312 10.3955Z" fill="#111111"/>
<path d="M24.6641 10.3955C24.2859 10.3955 23.9766 10.0861 23.9766 9.70797V6.79297C23.9766 6.41484 24.2859 6.10547 24.6641 6.10547C25.0422 6.10547 25.3516 6.41484 25.3516 6.79297V9.70797C25.3516 10.0861 25.0422 10.3955 24.6641 10.3955Z" fill="#111111"/>
<path d="M21.0312 25.0664C20.6531 25.0664 20.3438 24.757 20.3438 24.3789V21.4639C20.3438 21.0857 20.6531 20.7764 21.0312 20.7764C21.4094 20.7764 21.7188 21.0857 21.7188 21.4639V24.3789C21.7188 24.757 21.4094 25.0664 21.0312 25.0664Z" fill="#111111"/>
<path d="M24.6641 25.0664C24.2859 25.0664 23.9766 24.757 23.9766 24.3789V21.4639C23.9766 21.0857 24.2859 20.7764 24.6641 20.7764C25.0422 20.7764 25.3516 21.0857 25.3516 21.4639V24.3789C25.3516 24.757 25.0422 25.0664 24.6641 25.0664Z" fill="#111111"/>
<path d="M32.04 14.458H29.125C28.7469 14.458 28.4375 14.1486 28.4375 13.7705C28.4375 13.3924 28.7469 13.083 29.125 13.083H32.04C32.4181 13.083 32.7275 13.3924 32.7275 13.7705C32.7275 14.1486 32.4181 14.458 32.04 14.458Z" fill="#111111"/>
<path d="M32.04 18.0879H29.125C28.7469 18.0879 28.4375 17.7785 28.4375 17.4004C28.4375 17.0223 28.7469 16.7129 29.125 16.7129H32.04C32.4181 16.7129 32.7275 17.0223 32.7275 17.4004C32.7275 17.7785 32.4181 18.0879 32.04 18.0879Z" fill="#111111"/>
<path d="M16.5713 14.458H13.6563C13.2781 14.458 12.9688 14.1486 12.9688 13.7705C12.9688 13.3924 13.2781 13.083 13.6563 13.083H16.5713C16.9494 13.083 17.2588 13.3924 17.2588 13.7705C17.2588 14.1486 16.9494 14.458 16.5713 14.458Z" fill="#111111"/>
<path d="M16.5713 18.0879H13.6563C13.2781 18.0879 12.9688 17.7785 12.9688 17.4004C12.9688 17.0223 13.2781 16.7129 13.6563 16.7129H16.5713C16.9494 16.7129 17.2588 17.0223 17.2588 17.4004C17.2588 17.7785 16.9494 18.0879 16.5713 18.0879Z" fill="#111111"/>
</svg>
