<svg width="36" height="36" viewBox="0 0 36 36" fill="none" xmlns="http://www.w3.org/2000/svg">
<g clip-path="url(#clip0_18536_1390)">
<mask id="mask0_18536_1390" style="mask-type:luminance" maskUnits="userSpaceOnUse" x="0" y="0" width="36" height="36">
<path d="M36 0H0V36H36V0Z" fill="white"/>
</mask>
<g mask="url(#mask0_18536_1390)">
<path d="M35.8682 17.4882C34.1103 14.3066 31.5632 11.631 28.472 9.71862C25.324 7.7778 21.6986 6.75 18.0004 6.75C14.3022 6.75 10.6767 7.7778 7.52871 9.71862C4.43749 11.631 1.89042 14.3066 0.132544 17.4882C0.0456146 17.6448 0 17.821 0 18.0001C0 18.1792 0.0456146 18.3553 0.132544 18.5119C1.89042 21.6935 4.43749 24.3691 7.52871 26.2814C10.6767 28.2223 14.3022 29.2501 18.0004 29.2501C21.6986 29.2501 25.324 28.2223 28.472 26.2814C31.5632 24.3691 34.1103 21.6935 35.8682 18.5119C35.9551 18.3553 36.0007 18.1792 36.0007 18.0001C36.0007 17.821 35.9551 17.6448 35.8682 17.4882ZM18.0004 27.1407C11.6125 27.1407 5.63802 23.6532 2.27145 18.0001C5.63802 12.3469 11.6125 8.85944 18.0004 8.85944C24.3883 8.85944 30.3627 12.3469 33.7292 18.0001C30.3627 23.6532 24.3883 27.1407 18.0004 27.1407Z" fill="white"/>
<path d="M18 12.0234C16.8179 12.0234 15.6624 12.374 14.6796 13.0307C13.6968 13.6874 12.9307 14.6208 12.4784 15.7129C12.026 16.805 11.9077 18.0066 12.1383 19.166C12.3688 20.3254 12.9381 21.3903 13.7739 22.2261C14.6097 23.0619 15.6747 23.6312 16.834 23.8617C17.9934 24.0923 19.195 23.974 20.2871 23.5216C21.3792 23.0693 22.3126 22.3032 22.9693 21.3204C23.626 20.3376 23.9766 19.1821 23.9766 18C23.9747 16.4155 23.3444 14.8964 22.224 13.776C21.1036 12.6556 19.5845 12.0253 18 12.0234ZM18 21.8672C17.2351 21.8672 16.4875 21.6404 15.8515 21.2155C15.2155 20.7905 14.7199 20.1865 14.4272 19.4799C14.1345 18.7733 14.0579 17.9957 14.2071 17.2456C14.3563 16.4954 14.7246 15.8063 15.2655 15.2655C15.8063 14.7247 16.4954 14.3563 17.2455 14.2072C17.9957 14.0579 18.7732 14.1345 19.4799 14.4272C20.1865 14.7199 20.7905 15.2156 21.2154 15.8515C21.6404 16.4875 21.8672 17.2352 21.8672 18C21.8661 19.0253 21.4583 20.0083 20.7333 20.7333C20.0083 21.4583 19.0253 21.8661 18 21.8672Z" fill="white"/>
<path d="M18 4.92188C18.1385 4.92188 18.2757 4.8946 18.4036 4.84159C18.5316 4.78859 18.6478 4.7109 18.7458 4.61297C18.8437 4.51503 18.9214 4.39876 18.9744 4.2708C19.0274 4.14284 19.0547 4.00569 19.0547 3.86719V1.05469C19.0547 0.774969 18.9436 0.506703 18.7458 0.308911C18.548 0.111119 18.2797 0 18 0C17.7203 0 17.452 0.111119 17.2542 0.308911C17.0564 0.506703 16.9453 0.774969 16.9453 1.05469V3.86719C16.9453 4.00569 16.9726 4.14284 17.0256 4.2708C17.0786 4.39876 17.1563 4.51503 17.2542 4.61297C17.452 4.81075 17.7203 4.92188 18 4.92188Z" fill="white"/>
<path d="M10.0254 5.74554C10.1506 5.99579 10.37 6.18606 10.6354 6.27453C10.9009 6.36305 11.1906 6.34245 11.4409 6.2173C11.6911 6.0922 11.8814 5.87276 11.9698 5.60731C12.0584 5.34192 12.0378 5.05218 11.9126 4.80192L10.5064 1.98942C10.4444 1.86551 10.3587 1.75501 10.254 1.66424C10.1494 1.57347 10.0278 1.50419 9.8964 1.46039C9.76495 1.41658 9.62619 1.39908 9.48802 1.40891C9.34979 1.41873 9.21489 1.45567 9.09101 1.51763C8.96707 1.57958 8.85659 1.66534 8.76579 1.77C8.67505 1.87466 8.60575 1.99618 8.56197 2.12761C8.51813 2.25904 8.50066 2.39782 8.51046 2.536C8.5203 2.6742 8.55726 2.8091 8.6192 2.93301L10.0254 5.74554Z" fill="white"/>
<path d="M24.5598 6.2173C24.6837 6.27929 24.8187 6.3163 24.9568 6.32615C25.0951 6.33594 25.2338 6.31847 25.3653 6.27469C25.4967 6.23085 25.6182 6.16155 25.7229 6.07076C25.8276 5.97996 25.9133 5.86948 25.9752 5.74554L27.3815 2.93301C27.4434 2.8091 27.4804 2.67419 27.4902 2.53601C27.5 2.39782 27.4825 2.25904 27.4387 2.12761C27.3949 1.99618 27.3256 1.87466 27.2348 1.77C27.1441 1.66534 27.0336 1.57958 26.9097 1.51763C26.7857 1.45567 26.6509 1.41873 26.5127 1.40891C26.3744 1.39908 26.2357 1.41658 26.1043 1.46039C25.9728 1.50419 25.8513 1.57347 25.7467 1.66424C25.642 1.75501 25.5562 1.86551 25.4943 1.98942L24.088 4.80192C24.026 4.92583 23.9891 5.06074 23.9792 5.19894C23.9694 5.33715 23.9869 5.47591 24.0307 5.60736C24.0745 5.73882 24.1438 5.86032 24.2346 5.96498C24.3254 6.06965 24.4359 6.15541 24.5598 6.2173Z" fill="white"/>
<path d="M18 31.0781C17.7203 31.0781 17.452 31.1892 17.2542 31.387C17.0564 31.5848 16.9453 31.8531 16.9453 32.1328V34.9453C16.9453 35.2251 17.0564 35.4933 17.2542 35.6911C17.452 35.8889 17.7203 36 18 36C18.2797 36 18.548 35.8889 18.7458 35.6911C18.9436 35.4933 19.0547 35.2251 19.0547 34.9453V32.1328C19.0547 31.8531 18.9436 31.5848 18.7458 31.387C18.548 31.1892 18.2797 31.0781 18 31.0781Z" fill="white"/>
<path d="M11.4409 29.7833C11.3169 29.7213 11.182 29.6844 11.0438 29.6745C10.9056 29.6647 10.7668 29.6822 10.6354 29.726C10.504 29.7698 10.3824 29.8391 10.2778 29.9299C10.1731 30.0207 10.0874 30.1312 10.0254 30.2551L8.61921 33.0676C8.49405 33.3179 8.47346 33.6076 8.56198 33.873C8.65044 34.1385 8.84077 34.3579 9.09102 34.483C9.34127 34.6081 9.63097 34.6287 9.89641 34.5403C10.1619 34.4518 10.3812 34.2615 10.5064 34.0112L11.9126 31.1987C11.9746 31.0748 12.0116 30.9399 12.0215 30.8017C12.0313 30.6635 12.0138 30.5247 11.97 30.3933C11.9262 30.2618 11.8569 30.1403 11.7661 30.0357C11.6753 29.931 11.5648 29.8453 11.4409 29.7833Z" fill="white"/>
<path d="M25.9751 30.255C25.9132 30.1312 25.8274 30.0207 25.7227 29.9299C25.6181 29.8391 25.4966 29.7698 25.3651 29.726C25.2337 29.6822 25.095 29.6647 24.9567 29.6745C24.8186 29.6844 24.6837 29.7213 24.5597 29.7833C24.4358 29.8452 24.3253 29.931 24.2346 30.0357C24.1438 30.1403 24.0745 30.2618 24.0307 30.3933C23.9869 30.5247 23.9694 30.6634 23.9792 30.8017C23.989 30.9398 24.026 31.0747 24.0879 31.1987L25.4942 34.0112C25.6193 34.2614 25.8387 34.4517 26.1042 34.5402C26.3696 34.6287 26.6593 34.6081 26.9096 34.483C27.1598 34.3578 27.3501 34.1384 27.4386 33.873C27.5271 33.6075 27.5065 33.3178 27.3814 33.0675L25.9751 30.255Z" fill="white"/>
</g>
</g>
<defs>
<clipPath id="clip0_18536_1390">
<rect width="36" height="36" fill="white"/>
</clipPath>
</defs>
</svg>
