<svg width="32" height="32" viewBox="0 0 32 32" fill="none" xmlns="http://www.w3.org/2000/svg">
<path d="M2.66406 12C2.66406 8.22876 2.66406 6.34315 3.83563 5.17157C5.0072 4 6.89282 4 10.664 4H21.3307C25.1019 4 26.9875 4 28.1591 5.17157C29.3307 6.34315 29.3307 8.22876 29.3307 12V13.3333C29.3307 17.1045 29.3307 18.9901 28.1591 20.1617C26.9875 21.3333 25.1019 21.3333 21.3307 21.3333H10.664C6.89282 21.3333 5.0072 21.3333 3.83563 20.1617C2.66406 18.9901 2.66406 17.1045 2.66406 13.3333V12Z" stroke="#242426" stroke-width="2"/>
<path d="M16 25.3333V22M16 25.3333L24 28M16 25.3333L8 28" stroke="#242426" stroke-width="2" stroke-linecap="round"/>
</svg>
