<svg width="32" height="32" viewBox="0 0 32 32" fill="none" xmlns="http://www.w3.org/2000/svg">
<path d="M17.6768 26.6055C18.4147 27.3411 18.9711 27.8816 19.459 28.2539C19.7897 28.5063 20.0682 28.663 20.3262 28.749V29.7832C19.8122 29.6799 19.3396 29.4204 18.8525 29.0488H18.8516C18.3078 28.6338 17.7045 28.0452 16.9697 27.3125L17.6768 26.6055ZM24.6816 27.3125C23.9467 28.0454 23.3437 28.6348 22.7998 29.0498C22.3129 29.4213 21.8402 29.68 21.3262 29.7832V28.749C21.5841 28.663 21.8626 28.5063 22.1934 28.2539C22.6811 27.8817 23.237 27.3408 23.9746 26.6055L24.6816 27.3125ZM26.6104 25.3848L25.3896 26.6055L24.6826 25.8984L25.9033 24.6777L26.6104 25.3848ZM29.7881 21.3213C29.6848 21.8353 29.4262 22.308 29.0547 22.7949C28.6397 23.3388 28.0503 23.9418 27.3174 24.6768L26.6104 23.9697C27.3457 23.2321 27.8866 22.6762 28.2588 22.1885C28.5113 21.8576 28.6689 21.5793 28.7549 21.3213H29.7881ZM28.0186 17.6777C28.4329 18.1075 28.7819 18.4901 29.0547 18.8477C29.4262 19.3347 29.6848 19.8074 29.7881 20.3213H28.7549C28.6689 20.0633 28.5113 19.785 28.2588 19.4541C28.0167 19.1369 27.7031 18.7911 27.3115 18.3848L27.6719 18.0254L28.0186 17.6777ZM25.1973 17.6719L25.5508 18.0254C25.6742 18.1488 25.7915 18.2667 25.9033 18.3789L24.1045 20.1787L23.3975 19.4717L25.1973 17.6719ZM3.25586 11.6797C3.34191 11.9375 3.49881 12.2154 3.75098 12.5459C4.12316 13.0337 4.66397 13.5904 5.39941 14.3281L4.69238 15.0352C3.95963 14.3003 3.37099 13.6971 2.95605 13.1533C2.58461 12.6665 2.32597 12.1936 2.22266 11.6797H3.25586ZM5.39941 8.0293C4.66366 8.7674 4.12325 9.32453 3.75098 9.8125C3.4985 10.1434 3.34187 10.4216 3.25586 10.6797H2.22266C2.32586 10.1656 2.58453 9.69304 2.95605 9.20605C3.37112 8.66205 3.95923 8.05746 4.69238 7.32227L5.39941 8.0293ZM13.9805 6.45508L14.334 6.80859L12.5342 8.6084L11.8271 7.90137L13.626 6.10156C13.7384 6.21363 13.8568 6.33136 13.9805 6.45508ZM7.32715 6.10156L6.10645 7.32227L5.39941 6.61523L6.62012 5.39453L7.32715 6.10156ZM10.6846 3.25098C10.4265 3.33699 10.1483 3.49366 9.81738 3.74609C9.3295 4.11836 8.77228 4.65878 8.03418 5.39453L7.32715 4.6875C8.06234 3.95435 8.66694 3.36624 9.21094 2.95117C9.69797 2.57961 10.1704 2.31998 10.6846 2.2168V3.25098ZM11.6846 2.2168C12.1985 2.32009 12.6713 2.57969 13.1582 2.95117C13.5154 3.22372 13.897 3.57252 14.3262 3.98633L13.9805 4.33301L13.6191 4.69336C13.2132 4.30211 12.8678 3.98796 12.5508 3.74609C12.2202 3.49393 11.9424 3.33702 11.6846 3.25098V2.2168Z" fill="white" stroke="#272727"/>
<path d="M5.60243 28.9045L6.67188 28.548L9.97745 27.4461C11.0099 27.102 11.5261 26.93 12.0118 26.6986C12.5847 26.4255 13.1263 26.0908 13.6268 25.7004C14.051 25.3695 14.4357 24.9847 15.2053 24.2152L26.5669 12.8535L27.8028 11.6177C29.8504 9.57013 29.8504 6.25031 27.8028 4.20271C25.7552 2.15509 22.4353 2.15509 20.3877 4.20271L19.152 5.43855L7.7903 16.8002C7.02076 17.5698 6.63598 17.9544 6.30507 18.3787C5.91471 18.8792 5.58006 19.4207 5.307 19.9936C5.07552 20.4794 4.90345 20.9956 4.55929 22.028L3.45744 25.3336L3.10096 26.4031M5.60243 28.9045L4.53299 29.2611C4.02491 29.4304 3.46476 29.2981 3.08605 28.9195C2.70734 28.5407 2.57512 27.9805 2.74448 27.4725L3.10096 26.4031M5.60243 28.9045L3.10096 26.4031" stroke="#272727" stroke-width="2"/>
<path d="M19.1406 5.4375C19.1406 5.4375 19.2951 8.06366 21.6123 10.3809C23.9295 12.6981 26.5556 12.8526 26.5556 12.8526" stroke="#272727" stroke-width="2"/>
</svg>
