<svg width="34" height="34" viewBox="0 0 34 34" fill="none" xmlns="http://www.w3.org/2000/svg">
<path d="M2.82812 17.0372C2.82812 24.3276 8.30656 30.3352 15.3611 31.1474C16.402 31.2672 17.411 30.8234 18.1519 30.0806C19.0777 29.1524 19.0777 27.6477 18.1519 26.7195C17.411 25.9767 16.807 24.8684 17.3658 23.9797C19.5993 20.4274 31.1614 28.5857 31.1614 17.0372C31.1614 9.19269 24.8187 2.8335 16.9948 2.8335C9.17075 2.8335 2.82812 9.19269 2.82812 17.0372Z" stroke="#111111" stroke-width="2"/>
<path d="M24.7969 18.417C25.9704 18.417 26.9219 17.4655 26.9219 16.292C26.9219 15.1184 25.9704 14.167 24.7969 14.167C23.6232 14.167 22.6719 15.1184 22.6719 16.292C22.6719 17.4655 23.6232 18.417 24.7969 18.417Z" stroke="#111111" stroke-width="2"/>
<path d="M9.20313 18.417C10.3767 18.417 11.3281 17.4655 11.3281 16.292C11.3281 15.1184 10.3767 14.167 9.20313 14.167C8.02952 14.167 7.07812 15.1184 7.07812 16.292C7.07812 17.4655 8.02952 18.417 9.20313 18.417Z" stroke="#111111" stroke-width="2"/>
<path d="M15.5781 9.91699C15.5781 11.0906 14.6268 12.042 13.4531 12.042C12.2796 12.042 11.3281 11.0906 11.3281 9.91699C11.3281 8.74338 12.2796 7.79199 13.4531 7.79199C14.6268 7.79199 15.5781 8.74338 15.5781 9.91699Z" stroke="#111111" stroke-width="2"/>
<path d="M22.6719 9.9165C22.6719 11.0901 21.7204 12.0416 20.5469 12.0416C19.3732 12.0416 18.4219 11.0901 18.4219 9.9165C18.4219 8.7429 19.3732 7.7915 20.5469 7.7915C21.7204 7.7915 22.6719 8.7429 22.6719 9.9165Z" stroke="#111111" stroke-width="2"/>
</svg>
