<svg width="32" height="32" viewBox="0 0 32 32" fill="none" xmlns="http://www.w3.org/2000/svg">
<path d="M17.6765 25.8993C17.286 25.5088 16.6528 25.5088 16.2622 25.8993C15.8717 26.2899 15.8717 26.9231 16.2622 27.3136L17.6765 25.8993ZM4.69193 15.7432C5.08246 16.1337 5.71562 16.1337 6.10614 15.7432C6.49668 15.3527 6.49668 14.7195 6.10614 14.3289L4.69193 15.7432ZM15.041 5.39415L15.7481 6.10125C15.9356 5.91372 16.041 5.65936 16.041 5.39415C16.041 5.12893 15.9356 4.87457 15.7481 4.68704L15.041 5.39415ZM26.6114 16.9644L27.3186 16.2573C27.131 16.0699 26.8766 15.9644 26.6114 15.9644C26.3462 15.9644 26.0919 16.0699 25.9043 16.2573L26.6114 16.9644ZM11.1199 7.90103C10.7293 8.29156 10.7293 8.92472 11.1199 9.31524C11.5104 9.70577 12.1436 9.70577 12.5341 9.31524L11.1199 7.90103ZM22.6903 19.4713C22.2997 19.8619 22.2997 20.4951 22.6903 20.8856C23.0809 21.2761 23.7141 21.2761 24.1046 20.8856L22.6903 19.4713ZM6.62033 4.68704L4.69193 6.61544L6.10614 8.02965L8.03454 6.10125L6.62033 4.68704ZM25.3902 27.3136L27.3186 25.3852L25.9043 23.9709L23.9759 25.8993L25.3902 27.3136ZM16.2622 27.3136C17.1513 28.2027 17.8877 28.942 18.5493 29.4468C19.2341 29.9692 19.9548 30.3337 20.8261 30.3337V28.3336C20.5679 28.3336 20.2693 28.2435 19.7625 27.8568C19.2326 27.4525 18.6056 26.8284 17.6765 25.8993L16.2622 27.3136ZM23.9759 25.8993C23.0469 26.8284 22.4198 27.4525 21.8899 27.8568C21.383 28.2435 21.0844 28.3336 20.8261 28.3336V30.3337C21.6977 30.3337 22.4183 29.9692 23.103 29.4468C23.7646 28.942 24.501 28.2027 25.3902 27.3136L23.9759 25.8993ZM4.69193 6.61544C3.80286 7.50451 3.06344 8.24093 2.55865 8.90253C2.03625 9.58723 1.67188 10.3079 1.67188 11.1793H3.67188C3.67188 10.921 3.76202 10.6224 4.14869 10.1157C4.55296 9.58584 5.1771 8.95869 6.10614 8.02965L4.69193 6.61544ZM6.10614 14.3289C5.1771 13.3999 4.55296 12.7728 4.14869 12.2429C3.76202 11.7361 3.67188 11.4375 3.67188 11.1793H1.67188C1.67188 12.0507 2.03625 12.7714 2.55865 13.4561C3.06344 14.1177 3.80286 14.8541 4.69193 15.7432L6.10614 14.3289ZM15.7481 4.68704C14.859 3.79797 14.1226 3.05855 13.461 2.55376C12.7763 2.03136 12.0555 1.66699 11.1842 1.66699V3.66699C11.4424 3.66699 11.741 3.75713 12.2478 4.1438C12.7777 4.54807 13.4048 5.17221 14.3338 6.10125L15.7481 4.68704ZM8.03454 6.10125C8.96358 5.17221 9.59073 4.54807 10.1205 4.1438C10.6273 3.75715 10.9259 3.66699 11.1842 3.66699V1.66699C10.3128 1.66699 9.59212 2.03136 8.90742 2.55376C8.24582 3.05855 7.5094 3.79797 6.62033 4.68704L8.03454 6.10125ZM25.9043 17.6716C26.8334 18.6007 27.4575 19.2277 27.8618 19.7576C28.2485 20.2644 28.3386 20.5629 28.3386 20.8212H30.3386C30.3386 19.9499 29.9742 19.2292 29.4518 18.5444C28.947 17.8828 28.2077 17.1464 27.3186 16.2573L25.9043 17.6716ZM27.3186 25.3852C28.2077 24.4961 28.947 23.7596 29.4518 23.098C29.9742 22.4133 30.3386 21.6927 30.3386 20.8212H28.3386C28.3386 21.0795 28.2485 21.3781 27.8618 21.8849C27.4575 22.4148 26.8334 23.0419 25.9043 23.9709L27.3186 25.3852ZM14.3338 4.68704L11.1199 7.90103L12.5341 9.31524L15.7481 6.10125L14.3338 4.68704ZM25.9043 16.2573L22.6903 19.4713L24.1046 20.8856L27.3186 17.6716L25.9043 16.2573Z" fill="#111111"/>
<path d="M5.60243 28.9045L6.67188 28.548L9.97745 27.4461C11.0099 27.102 11.5261 26.93 12.0118 26.6986C12.5847 26.4255 13.1263 26.0908 13.6268 25.7004C14.051 25.3695 14.4357 24.9847 15.2053 24.2152L26.5669 12.8535L27.8028 11.6177C29.8504 9.57013 29.8504 6.25031 27.8028 4.20271C25.7552 2.15509 22.4353 2.15509 20.3877 4.20271L19.152 5.43855L7.7903 16.8002C7.02076 17.5698 6.63598 17.9544 6.30507 18.3787C5.91471 18.8792 5.58006 19.4207 5.307 19.9936C5.07552 20.4794 4.90345 20.9956 4.55929 22.028L3.45744 25.3336L3.10096 26.4031M5.60243 28.9045L4.53299 29.2611C4.02491 29.4304 3.46476 29.2981 3.08605 28.9195C2.70734 28.5407 2.57512 27.9805 2.74448 27.4725L3.10096 26.4031M5.60243 28.9045L3.10096 26.4031" stroke="#111111" stroke-width="2"/>
<path d="M19.1406 5.4375C19.1406 5.4375 19.2951 8.06366 21.6123 10.3809C23.9295 12.6981 26.5556 12.8526 26.5556 12.8526" stroke="#111111" stroke-width="2"/>
</svg>
