<svg width="20" height="19" viewBox="0 0 20 19" fill="none" xmlns="http://www.w3.org/2000/svg">
<path d="M16 0C17.0609 0 18.0783 0.421427 18.8284 1.17157C19.5786 1.92172 20 2.93913 20 4V12C20 13.0609 19.5786 14.0783 18.8284 14.8284C18.0783 15.5786 17.0609 16 16 16H11.276L6.514 18.857C6.37059 18.9431 6.20788 18.9918 6.04077 18.9987C5.87366 19.0056 5.70749 18.9705 5.55746 18.8966C5.40743 18.8227 5.27833 18.7123 5.18199 18.5756C5.08565 18.4389 5.02514 18.2802 5.006 18.114L5 18V16H4C2.97376 16 1.98677 15.6056 1.24319 14.8983C0.499605 14.191 0.0563122 13.225 0.00500011 12.2L0 12V4C0 2.93913 0.421427 1.92172 1.17157 1.17157C1.92172 0.421427 2.93913 0 4 0H16ZM13.2 9.286C13.0106 9.10037 12.7553 8.99757 12.4901 9.00019C12.2249 9.00282 11.9717 9.11066 11.786 9.3C11.5532 9.53766 11.2753 9.72647 10.9687 9.85536C10.662 9.98426 10.3327 10.0507 10 10.0507C9.66733 10.0507 9.33801 9.98426 9.03133 9.85536C8.72465 9.72647 8.44678 9.53766 8.214 9.3C8.0274 9.11503 7.7755 9.01093 7.51276 9.0102C7.25002 9.00948 6.99755 9.11219 6.80993 9.29613C6.62231 9.48007 6.51462 9.73045 6.51014 9.99316C6.50567 10.2559 6.60476 10.5098 6.786 10.7C7.20498 11.1275 7.70505 11.4672 8.25692 11.6991C8.8088 11.9309 9.40139 12.0504 10 12.0504C10.5986 12.0504 11.1912 11.9309 11.7431 11.6991C12.295 11.4672 12.795 11.1275 13.214 10.7C13.3996 10.5106 13.5024 10.2553 13.4998 9.9901C13.4972 9.72493 13.3893 9.47167 13.2 9.286ZM7.51 5H7.5C7.23478 5 6.98043 5.10536 6.79289 5.29289C6.60536 5.48043 6.5 5.73478 6.5 6C6.5 6.26522 6.60536 6.51957 6.79289 6.70711C6.98043 6.89464 7.23478 7 7.5 7H7.51C7.77522 7 8.02957 6.89464 8.21711 6.70711C8.40464 6.51957 8.51 6.26522 8.51 6C8.51 5.73478 8.40464 5.48043 8.21711 5.29289C8.02957 5.10536 7.77522 5 7.51 5ZM12.51 5H12.5C12.2348 5 11.9804 5.10536 11.7929 5.29289C11.6054 5.48043 11.5 5.73478 11.5 6C11.5 6.26522 11.6054 6.51957 11.7929 6.70711C11.9804 6.89464 12.2348 7 12.5 7H12.51C12.7752 7 13.0296 6.89464 13.2171 6.70711C13.4046 6.51957 13.51 6.26522 13.51 6C13.51 5.73478 13.4046 5.48043 13.2171 5.29289C13.0296 5.10536 12.7752 5 12.51 5Z" fill="white"/>
</svg>
