<svg width="72" height="64" viewBox="0 0 72 64" fill="none" xmlns="http://www.w3.org/2000/svg">
<path d="M33.9038 2.11508C34.9721 1.02291 36.7031 1.02276 37.7713 2.11508L56.851 21.637C53.8445 30.5526 45.5774 36.9605 35.839 36.9605C26.0993 36.9603 17.831 30.5502 14.8256 21.6325L7.51117 29.1147C12.7951 39.6139 23.4965 46.7963 35.839 46.7964C48.1769 46.7964 58.8763 39.6159 64.1639 29.1192L70.8668 35.9775C71.9352 37.0703 71.9352 38.8407 70.8668 39.9337L48.7192 62.5909C47.7523 63.5829 46.18 63.5828 45.2101 62.5909L37.5892 54.7951C36.6223 53.8033 35.0499 53.8034 34.0799 54.7951L26.4591 62.5909C25.4921 63.5829 23.9198 63.5831 22.9499 62.5909L0.800858 39.9337C-0.26699 38.8409 -0.266916 37.0703 0.800858 35.9775L33.9038 2.11508Z" fill="white"/>
<path d="M42.4647 63.3277L36.8043 57.5374C36.2947 57.0162 35.4667 57.0162 34.9571 57.5374L29.2969 63.3277H42.4647Z" fill="white"/>
<g clip-path="url(#clip0_18920_1910)">
<path d="M47.917 22.9463C45.1105 26.7431 40.6613 29.1551 35.7158 29.1553C30.769 29.1552 26.3173 26.7422 23.5107 22.9434L35.7129 10.582L47.917 22.9463Z" stroke="white" stroke-width="16.5787"/>
</g>
<defs>
<clipPath id="clip0_18920_1910">
<rect width="46.0724" height="38.7745" fill="white" transform="translate(12.7812)"/>
</clipPath>
</defs>
</svg>
