<svg width="48" height="34" viewBox="0 0 48 34" fill="none" xmlns="http://www.w3.org/2000/svg">
<g clip-path="url(#clip0_18920_1940)">
<path fill-rule="evenodd" clip-rule="evenodd" d="M11.9829 4.99632L0 17C2.39681 19.401 5.13479 21.4245 8.11997 23.0076C8.94509 25.2001 10.2384 27.2562 12 29.0208C18.6275 35.6597 29.3726 35.6597 36 29.0208C37.7616 27.2562 39.055 25.2001 39.8801 23.0074C42.8652 21.4245 45.6032 19.401 48 17L36.0268 5.00608C36.0179 4.99711 36.009 4.98814 36 4.97918C29.3726 -1.65973 18.6275 -1.65973 12 4.97918C11.9943 4.98489 11.9886 4.9906 11.9829 4.99632ZM34.8534 25.1732C31.3614 26.3538 27.6956 26.9584 24 26.9584C20.3044 26.9584 16.6387 26.3538 13.1467 25.1732C13.5251 25.6761 13.9428 26.1586 14.4 26.6167C19.702 31.9278 28.298 31.9278 33.6 26.6167C34.0572 26.1586 34.475 25.6761 34.8534 25.1732ZM14.6461 7.14291C15.5465 7.73877 16.5038 8.24866 17.5056 8.66436C19.5646 9.51869 21.7714 9.9584 24 9.9584C26.2286 9.9584 28.4354 9.51869 30.4944 8.66436C31.4962 8.24866 32.4535 7.73876 33.354 7.14289C28.1182 2.15236 19.8818 2.15237 14.6461 7.14291Z" fill="#00D83F"/>
</g>
<defs>
<clipPath id="clip0_18920_1940">
<rect width="48" height="34" fill="white"/>
</clipPath>
</defs>
</svg>
