<svg width="36" height="36" viewBox="0 0 36 36" fill="none" xmlns="http://www.w3.org/2000/svg">
<g clip-path="url(#clip0_18920_1920)">
<path fill-rule="evenodd" clip-rule="evenodd" d="M9 0C13.9705 0 18 4.02943 18 9V0H27C31.9705 0 36 4.02943 36 9C36 13.9705 31.9705 18 27 18C31.9705 18 36 22.0295 36 27C36 29.4681 35.0065 31.7041 33.3977 33.3301L33.364 33.364L33.3341 33.3937C31.7078 35.0049 29.4701 36 27 36C24.5467 36 22.3226 35.0184 20.6991 33.4264C20.678 33.4057 20.657 33.3849 20.636 33.364C20.6163 33.3443 20.5967 33.3245 20.5772 33.3046C18.9832 31.6808 18 29.4552 18 27C18 31.9705 13.9705 36 9 36C4.02943 36 0 31.9705 0 27V18H9C4.02943 18 0 13.9705 0 9C0 4.02943 4.02943 0 9 0ZM16.2 9C16.2 12.9765 12.9765 16.2 9 16.2V1.8C12.9765 1.8 16.2 5.02355 16.2 9ZM34.2 27C34.2 23.0235 30.9765 19.8 27 19.8C23.0235 19.8 19.8 23.0235 19.8 27H34.2ZM1.8 19.8V27C1.8 30.9765 5.02355 34.2 9 34.2C12.9765 34.2 16.2 30.9765 16.2 27V19.8H1.8ZM19.8 16.2V1.8H27C30.9765 1.8 34.2 5.02355 34.2 9C34.2 12.9765 30.9765 16.2 27 16.2H19.8Z" fill="#5417D7"/>
</g>
<defs>
<clipPath id="clip0_18920_1920">
<rect width="36" height="36" fill="white"/>
</clipPath>
</defs>
</svg>
