<svg width="40" height="40" viewBox="0 0 40 40" fill="none" xmlns="http://www.w3.org/2000/svg">
<g clip-path="url(#clip0_18920_1888)">
<path d="M13.0964 20.3535L17.6262 22.4472L17.046 27.6526L8.94876 36.8281C4.2486 33.8022 0.898178 28.8614 0 23.1079L13.0964 20.3535Z" fill="#15E3FF"/>
<path d="M25.1806 25.94L31.239 36.3789C27.9896 38.6605 24.0307 40 19.7588 40C18.372 40 17.0182 39.8587 15.7109 39.59L17.0436 27.6527L20.4741 23.7656L25.1806 25.94Z" fill="#348DFC"/>
<path d="M39.1018 14.8809C39.5328 16.5142 39.7626 18.2293 39.7626 19.9981C39.7626 24.1144 38.5188 27.9402 36.387 31.1206L25.1836 25.9404L22.5547 21.4122L25.857 17.6691L39.1018 14.8809Z" fill="#FD4873"/>
<path d="M20.1286 0C26.1471 0.109415 31.516 2.877 35.1114 7.17842L25.8527 17.6694L20.9758 18.6959L18.5156 14.4574L20.1286 0Z" fill="#FFC700"/>
<path d="M18.5199 14.4571L17.9754 19.3266L13.1 20.3527L0.515625 14.5344C2.10056 8.94013 6.05886 4.34329 11.2336 1.90039L18.5199 14.4571Z" fill="#00E7B9"/>
</g>
<defs>
<clipPath id="clip0_18920_1888">
<rect width="40" height="40" fill="white"/>
</clipPath>
</defs>
</svg>
