<svg width="42" height="42" viewBox="0 0 42 42" fill="none" xmlns="http://www.w3.org/2000/svg">
<g clip-path="url(#clip0_18920_1880)">
<path fill-rule="evenodd" clip-rule="evenodd" d="M26.8335 12.2696C25.1068 11.1158 23.0767 10.5 21 10.5V0C25.1534 0 29.2135 1.23163 32.667 3.53914C36.1204 5.84664 38.812 9.1264 40.4015 12.9636C41.9909 16.8008 42.4068 21.0233 41.5965 25.0969C40.7862 29.1705 38.7862 32.9124 35.8492 35.8492C32.9124 38.7862 29.1705 40.7862 25.0969 41.5965C21.0233 42.4068 16.8008 41.9909 12.9636 40.4015C9.1264 38.812 5.84664 36.1204 3.53914 32.667C1.23163 29.2135 0 25.1534 0 21H10.5C10.5 23.0767 11.1158 25.1068 12.2696 26.8335C13.4233 28.5602 15.0632 29.906 16.9819 30.7007C18.9004 31.4955 21.0117 31.7034 23.0484 31.2982C25.0852 30.8931 26.9561 29.8931 28.4247 28.4247C29.8931 26.9561 30.8931 25.0852 31.2982 23.0484C31.7034 21.0117 31.4955 18.9004 30.7007 16.9819C29.906 15.0632 28.5602 13.4233 26.8335 12.2696Z" fill="#007DFC"/>
<path fill-rule="evenodd" clip-rule="evenodd" d="M10.5 4.54781e-06C10.5 1.37888 10.2284 2.74426 9.70074 4.01817C9.17306 5.29209 8.39963 6.4496 7.42461 7.42462C6.44961 8.39964 5.29209 9.17306 4.01817 9.70074C2.74425 10.2284 1.37888 10.5 4.58965e-07 10.5L0 21C2.75776 21 5.48851 20.4568 8.03636 19.4015C10.5842 18.3461 12.8993 16.7993 14.8492 14.8492C16.7993 12.8993 18.3461 10.5842 19.4015 8.03635C20.4568 5.48851 21 2.75775 21 0L10.5 4.54781e-06Z" fill="#007DFC"/>
</g>
<defs>
<clipPath id="clip0_18920_1880">
<rect width="42" height="42" fill="white"/>
</clipPath>
</defs>
</svg>
