<svg width="38" height="38" viewBox="0 0 38 38" fill="none" xmlns="http://www.w3.org/2000/svg">
<g clip-path="url(#clip0_18920_1927)">
<path d="M15.8242 38.0001H14.6113C11.4607 38.0001 9.5652 37.9996 8.11719 37.7302L16.4972 26.6328L15.8242 38.0001Z" fill="#FF1616"/>
<path d="M29.6821 37.7634C28.259 37.9984 26.3944 37.9996 23.3837 37.9996H21.9498L21.2734 26.6289L29.6821 37.7634Z" fill="#FF1616"/>
<path d="M37.6871 30.0876C37.6259 30.3788 37.5539 30.6526 37.4661 30.9159C36.8912 32.6393 35.8818 34.155 34.5666 35.3387L25.1172 24.7422L37.6871 30.0876Z" fill="#FF1616"/>
<path d="M3.30842 35.2249C2.05302 34.0582 1.08727 32.5847 0.530274 30.9151C0.433822 30.6259 0.353739 30.3246 0.289062 30.0009L12.655 24.7432L3.30842 35.2249Z" fill="#FF1616"/>
<path d="M38.0014 23.3872C38.0014 24.4554 37.9983 25.3794 37.9879 26.1905L26.7656 21.8555H38.0014V23.3872Z" fill="#FF1616"/>
<path d="M11.0164 21.8555L0.0101207 26.1062C0.000670799 25.3155 0 24.4186 0 23.3872V21.8555H11.0164Z" fill="#FF1616"/>
<path d="M23.3874 0C27.3417 0 29.3189 0.000525984 30.9155 0.533026C34.008 1.56477 36.4353 3.99198 37.467 7.08452C37.9994 8.68108 38 10.6583 38 14.6126V19.0152H26.1335L34.6922 15.3768L32.1536 13.6917L23.8496 16.8982L27.7477 11.7401L24.9442 10.9726L20.6396 15.7968L20.3191 10.3636H17.4634L17.1378 15.7968L12.8365 10.9726L10.0348 11.7401L13.9279 16.8966L5.62882 13.6917L3.0902 15.3768L11.6473 19.0152H0V14.6126C0 10.6583 0.000525984 8.68108 0.533026 7.08452C1.56477 3.99198 3.99198 1.56477 7.08452 0.533026C8.68108 0.000525984 10.6583 0 14.6126 0H23.3874Z" fill="#FF1616"/>
</g>
<defs>
<clipPath id="clip0_18920_1927">
<rect width="38" height="38" fill="white"/>
</clipPath>
</defs>
</svg>
