<svg width="124" height="124" viewBox="0 0 124 124" fill="none" xmlns="http://www.w3.org/2000/svg">
<path d="M119.584 38.9972C117.708 34.2967 112.071 32.3788 107.718 34.9598L107.026 35.3698C103.482 37.4709 102.139 41.8255 103.642 45.6615C105.669 50.8359 106.723 56.3793 106.723 62.0004C106.723 83.7067 91.1793 101.85 70.6374 105.886V70.6388H81.1996C85.9706 70.6388 89.8382 66.7712 89.8382 62.0001C89.8382 57.2294 85.9709 53.3615 81.1996 53.3615H70.6374V0H61.9988C27.8118 0 0 27.8128 0 61.9999C0 69.4837 1.35413 76.8863 3.9603 83.8287C5.82184 88.7872 11.7441 90.8404 16.3351 88.2005C20.0496 86.0644 21.5427 81.5644 20.0564 77.5457C19.2271 75.3035 18.6045 72.9891 18.1433 70.6385H53.3605V124H61.9991C96.1864 124 124 96.1875 124 62.0001C124 54.0839 122.489 46.2752 119.584 38.9972ZM18.1403 53.3618C21.6297 35.6206 35.6191 21.6005 53.3605 18.1146V53.3618H18.1403Z" fill="#242426"/>
<path d="M98.7813 28.4781C103.713 28.4781 107.711 24.4801 107.711 19.5482C107.711 14.6164 103.713 10.6182 98.7813 10.6182C93.8498 10.6182 89.8516 14.6164 89.8516 19.5482C89.8516 24.4801 93.8498 28.4781 98.7813 28.4781Z" fill="#242426"/>
</svg>
