<svg width="48" height="48" viewBox="0 0 48 48" fill="none" xmlns="http://www.w3.org/2000/svg">
<path d="M31.2803 47.8644H16.7232C16.2055 47.8644 15.7857 47.4446 15.7857 46.9269V40.6487C14.9999 40.1248 14.2592 39.5183 13.5751 38.8342C11.2409 36.5 9.81372 33.5124 9.47078 30.2973H6.63775C6.54962 30.2986 6.46478 30.2881 6.38312 30.2665C6.24709 30.2307 6.12325 30.1652 6.01872 30.0773C5.91306 29.9885 5.82644 29.8761 5.76794 29.7465C5.73306 29.6696 5.70831 29.5873 5.69528 29.5011C5.64738 29.2174 5.60566 28.9332 5.57022 28.6497H5.22484C3.30878 28.6497 1.75 27.0878 1.75 25.1678V22.3105C1.75 20.3945 3.30888 18.8357 5.22484 18.8357H5.42744V18.654C5.42744 13.7268 7.35906 9.08166 10.8664 5.57429C14.3647 2.07591 18.9947 0.145316 23.9078 0.135379H23.908C23.9124 0.135379 23.9166 0.135285 23.9214 0.135379C23.9254 0.135379 23.9304 0.135098 23.9343 0.135379H23.9583C23.9629 0.135566 23.9669 0.135379 23.9713 0.135379C23.9755 0.135285 23.9801 0.135379 23.9849 0.135379H23.9854C28.8986 0.145504 33.5293 2.0761 37.0292 5.5741C40.539 9.08194 42.4718 13.7271 42.4718 18.654V18.8357H42.7717C44.6916 18.8357 46.2536 20.3945 46.2536 22.3105V25.1678C46.2536 27.0878 44.6916 28.6497 42.7717 28.6497H42.3267C42.2893 28.9434 42.2447 29.2352 42.1931 29.5246C42.1132 29.9718 41.7243 30.2973 41.2701 30.2973H38.526C38.1832 33.5129 36.757 36.5004 34.4243 38.834C33.7413 39.5172 33.0023 40.1227 32.2178 40.6461V46.9269C32.2178 47.4446 31.798 47.8644 31.2803 47.8644ZM17.6607 45.9894H30.3427V41.7008C28.496 42.5617 26.4722 43.0163 24.3824 43.0192C24.3792 43.0192 24.376 43.0191 24.3728 43.0192C24.3696 43.0192 24.3664 43.0192 24.3632 43.0192H23.6332C23.6287 43.0191 23.6241 43.0191 23.6201 43.0192C23.6147 43.0192 23.609 43.0192 23.6037 43.0192C23.6034 43.0192 23.6028 43.0192 23.6025 43.0192C21.5195 43.0148 19.5025 42.5607 17.6605 41.7028V45.9894H17.6607ZM23.6333 41.1441H24.3632C24.367 41.1441 24.3708 41.144 24.3747 41.1441H24.3884H24.3901C26.644 41.139 28.8569 40.5115 30.791 39.3284C30.8275 39.3061 30.8652 39.2864 30.9037 39.2695C34.2443 37.1798 36.5206 33.5406 36.7175 29.3659C36.7175 29.3639 36.7175 29.3618 36.7175 29.3598C36.7175 29.33 36.7189 29.3003 36.7217 29.2713C36.7281 29.1068 36.7314 28.9418 36.7314 28.7758V18.9946C36.7314 14.0907 33.8628 9.84432 29.7154 7.84538C29.6966 7.83779 29.6779 7.82963 29.6593 7.82082C29.3342 7.66547 29.0043 7.52504 28.67 7.39979C27.3371 6.9031 25.8963 6.63 24.3932 6.62635C24.3887 6.62616 24.3868 6.62635 24.3835 6.62635C24.38 6.62635 24.377 6.62635 24.3735 6.62635C24.3701 6.62635 24.3665 6.62635 24.3632 6.62635H23.6332C23.6281 6.62635 23.6229 6.62635 23.6178 6.62635C23.6136 6.62635 23.6092 6.62644 23.6051 6.62635C23.6043 6.62635 23.6036 6.62635 23.6028 6.62635C22.492 6.62897 21.4158 6.77879 20.3913 7.05732C19.6915 7.24866 19.0081 7.50338 18.3439 7.82082C18.315 7.8346 18.2856 7.84688 18.2559 7.85757C14.1221 9.86157 11.2651 14.1008 11.2651 18.9947V28.7758C11.2651 28.9418 11.2683 29.1078 11.2748 29.2723C11.2774 29.3012 11.2788 29.3303 11.2788 29.3599V29.3649C11.4752 33.5339 13.7454 37.1693 17.0782 39.2606C17.1246 39.2796 17.17 39.3025 17.2135 39.3293C19.1403 40.5118 21.3502 41.1392 23.6061 41.1442C23.6096 41.1443 23.6125 41.1443 23.6158 41.1442C23.6187 41.1442 23.6213 41.1441 23.6245 41.1442C23.6276 41.1441 23.6304 41.1441 23.6333 41.1441ZM38.6065 28.4223H40.4654C40.4959 28.183 40.5212 27.9422 40.5412 27.7004C40.5415 27.6804 40.5423 27.6605 40.5438 27.6404C40.5791 27.1812 40.5964 26.7621 40.5966 26.3593C40.5966 26.3561 40.5966 26.3528 40.5966 26.3496V18.6539C40.5966 11.9961 36.665 6.2386 31.0011 3.57929V6.39488C35.5203 8.78522 38.6064 13.5362 38.6064 18.9946V28.4223H38.6065ZM7.43134 28.4223H9.39016V18.9946C9.39016 15.2045 10.8765 11.6314 13.5752 8.93363C14.6029 7.90632 15.7574 7.05479 17.0024 6.39422V3.52894C11.2823 6.16529 7.30253 11.9536 7.30253 18.654V26.3497C7.30253 26.588 7.30881 26.8253 7.31566 27.076C7.31997 27.1386 7.32362 27.2011 7.32737 27.2639C7.33469 27.3868 7.34153 27.5029 7.35316 27.6157C7.357 27.6525 7.35859 27.6892 7.35812 27.7257C7.37772 27.9568 7.40219 28.1893 7.43134 28.4223ZM42.4667 26.7747H42.7716C43.6577 26.7747 44.3785 26.054 44.3785 25.1678V22.3105C44.3785 21.4283 43.6577 20.7107 42.7716 20.7107H42.4717V26.3496V26.3604C42.4716 26.4985 42.4699 26.6367 42.4667 26.7747ZM5.22494 20.7107C4.34284 20.7107 3.62509 21.4284 3.62509 22.3105V25.1678C3.62509 26.0539 4.34284 26.7747 5.22494 26.7747H5.43259C5.42959 26.6342 5.42753 26.4922 5.42753 26.3497V20.7108H5.22494V20.7107ZM24.398 4.75144C26.0319 4.75528 27.6166 5.03007 29.1263 5.56988V2.84166C27.4799 2.29716 25.765 2.01797 24.0177 2.01057C24.0138 2.01057 24.0115 2.01057 24.0077 2.01057C24.0041 2.01057 23.9994 2.01057 23.996 2.01057C23.9917 2.01057 23.9881 2.01057 23.9837 2.01057C23.9797 2.01057 23.9754 2.01057 23.9714 2.01057C23.967 2.01057 23.9632 2.01047 23.9588 2.01057C23.9509 2.01057 23.9415 2.01057 23.9337 2.01057C23.9296 2.01057 23.9253 2.01057 23.9211 2.01057C23.9173 2.01047 23.9126 2.01057 23.9088 2.01057C23.9051 2.01047 23.9001 2.01057 23.8967 2.01057C23.8929 2.01057 23.8889 2.01057 23.885 2.01057C22.1743 2.01675 20.4929 2.28375 18.8773 2.805V5.56838C19.2077 5.45082 19.5426 5.34554 19.8815 5.25282C21.08 4.92347 22.3198 4.75547 23.5884 4.75163C23.5917 4.75125 23.5955 4.75163 23.5989 4.75163H23.6101H23.6215H23.6333H24.3632C24.3692 4.75163 24.3756 4.75153 24.3814 4.75163C24.3858 4.75153 24.3918 4.75163 24.3967 4.75163C24.3973 4.75144 24.3976 4.75144 24.398 4.75144ZM26.5461 37.2769H21.4574C20.9397 37.2769 20.5199 36.8571 20.5199 36.3394C20.5199 35.8217 20.9397 35.4019 21.4574 35.4019H26.546C27.0637 35.4019 27.4835 35.8217 27.4835 36.3394C27.4835 36.8571 27.0638 37.2769 26.5461 37.2769ZM27.4707 34.5171H20.5328C20.0151 34.5171 19.5953 34.0973 19.5953 33.5796C19.5953 33.0619 20.0151 32.6421 20.5328 32.6421H27.4707C27.9884 32.6421 28.4082 33.0619 28.4082 33.5796C28.4082 34.0973 27.9884 34.5171 27.4707 34.5171ZM24.0713 30.9785C22.5026 30.9785 21.2329 29.722 21.1808 28.1179L21.0348 23.5432C21.0183 23.0257 21.4244 22.5927 21.942 22.5763C22.4597 22.5577 22.8924 22.9659 22.9088 23.4834L23.0549 28.0577C23.0738 28.644 23.5203 29.1036 24.0713 29.1036C24.6258 29.1036 25.0941 28.6383 25.0941 28.0876V23.5133C25.0941 22.9956 25.5139 22.5758 26.0316 22.5758C26.5493 22.5758 26.9691 22.9956 26.9691 23.5133V28.0876C26.9691 29.6816 25.6692 30.9785 24.0713 30.9785ZM33.6926 21.5379H26.7546C26.2369 21.5379 25.8171 21.1182 25.8171 20.6004C25.8171 20.0827 26.2369 19.6629 26.7546 19.6629H33.6926C34.2103 19.6629 34.6301 20.0827 34.6301 20.6004C34.6301 21.1182 34.2104 21.5379 33.6926 21.5379ZM21.2419 21.5379H14.311C13.7932 21.5379 13.3735 21.1182 13.3735 20.6004C13.3735 20.0827 13.7932 19.6629 14.311 19.6629H21.2419C21.7597 19.6629 22.1794 20.0827 22.1794 20.6004C22.1794 21.1182 21.7597 21.5379 21.2419 21.5379ZM30.1263 16.8525H17.8773C17.5779 16.8525 17.3052 16.7107 17.1319 16.4838C16.4062 15.945 15.9804 15.1417 15.9804 14.2883C15.9804 13.1025 16.7953 12.0694 17.9739 11.6441C18.2337 10.3052 19.541 9.28388 21.1099 9.28388C21.3109 9.28388 21.5089 9.30075 21.7027 9.33432C22.2961 8.78175 23.1252 8.45663 24.0018 8.45663C24.8785 8.45663 25.7075 8.78175 26.3008 9.33432C26.4947 9.30075 26.6927 9.28388 26.8937 9.28388C28.4627 9.28388 29.7704 10.3055 30.0298 11.6448C31.2041 12.0702 32.0162 13.103 32.0162 14.2883C32.0162 15.1434 31.5932 15.9465 30.8721 16.4832C30.6989 16.7104 30.426 16.8525 30.1263 16.8525ZM18.2482 14.9775H29.755C30.0018 14.7938 30.1412 14.5474 30.1412 14.2883C30.1412 13.8141 29.648 13.3898 29.0185 13.3225C28.7618 13.2951 28.5277 13.163 28.3716 12.9573C28.2154 12.7517 28.151 12.4907 28.1936 12.2361C28.1992 12.2025 28.2017 12.1708 28.2017 12.1331C28.2017 11.605 27.6027 11.1588 26.8937 11.1588C26.6959 11.1588 26.499 11.1957 26.3244 11.2656C25.9067 11.4326 25.4288 11.2793 25.1863 10.9002C24.9654 10.5548 24.5005 10.3316 24.0018 10.3316C23.4955 10.3316 23.0416 10.5495 22.8173 10.9002C22.5749 11.2793 22.0972 11.4328 21.6793 11.2656C21.5046 11.1957 21.3077 11.1588 21.1098 11.1588C20.4008 11.1588 19.8018 11.6049 19.8018 12.1331C19.8018 12.1707 19.8043 12.2025 19.81 12.2361C19.8525 12.4907 19.7881 12.7517 19.6319 12.9573C19.4758 13.1629 19.2417 13.2951 18.985 13.3225C18.3516 13.3903 17.8554 13.8144 17.8554 14.2883C17.8553 14.5452 17.9972 14.7917 18.2482 14.9775Z" fill="#E94625"/>
</svg>
