<svg width="30" height="48" viewBox="0 0 30 48" fill="none" xmlns="http://www.w3.org/2000/svg">
<path d="M29.4472 22.9864C29.4472 14.8678 22.8422 8.2627 14.7236 8.2627C6.60489 8.2627 0 14.8678 0 22.9864C0 27.965 2.54194 32.6184 6.68645 35.3245V39.9631C6.68645 44.3947 10.2918 47.9999 14.7234 47.9999C19.1549 47.9999 22.7603 44.3946 22.7603 39.9631V37.3578C22.7603 37.3571 22.7602 35.3247 22.7602 35.3247C26.9052 32.6185 29.4472 27.9652 29.4472 22.9864ZM19.9221 39.9632C19.9221 42.8297 17.5901 45.1616 14.7236 45.1616C11.8571 45.1616 9.52502 42.8296 9.52502 39.9632V38.7769H19.9221V39.9632ZM20.6343 33.3001C20.1937 33.5532 19.9221 34.0225 19.9221 34.5307V35.9386H16.1427V28.5999C17.9854 28.0004 19.3215 26.2672 19.3215 24.227C19.3215 23.4433 18.6861 22.8078 17.9023 22.8078C17.1186 22.8078 16.4832 23.4433 16.4832 24.227C16.4832 25.1973 15.6938 25.9867 14.7236 25.9867C13.7533 25.9867 12.9639 25.1974 12.9639 24.227C12.9639 23.4433 12.3284 22.8078 11.5447 22.8078C10.7609 22.8078 10.1255 23.4433 10.1255 24.227C10.1255 26.2671 11.4615 28.0004 13.3044 28.5999V35.9386H9.52521V34.5307C9.52521 34.0225 9.25361 33.5532 8.81299 33.3001C5.12776 31.1829 2.83857 27.231 2.83857 22.9864C2.83857 16.4328 8.17024 11.1011 14.7238 11.1011C21.2775 11.1011 26.6091 16.4327 26.6091 22.9864C26.6089 27.2311 24.3195 31.1831 20.6343 33.3001Z" fill="#E94625"/>
<path d="M14.7239 0C13.9401 0 13.3047 0.635439 13.3047 1.41919V3.9106C13.3047 4.69435 13.9401 5.32979 14.7239 5.32979C15.5076 5.32979 16.1431 4.69435 16.1431 3.9106V1.41919C16.1431 0.635439 15.5077 0 14.7239 0Z" fill="#E94625"/>
<path d="M10.7373 4.27476L9.85642 1.94413C9.5793 1.211 8.76002 0.841342 8.02717 1.11837C7.29404 1.3955 6.92429 2.2145 7.20142 2.94763L8.0822 5.27826C8.29689 5.8462 8.8367 6.19607 9.40999 6.19607C9.57667 6.19607 9.74636 6.16645 9.91155 6.10401C10.6447 5.82688 11.0144 5.00788 10.7373 4.27476Z" fill="#E94625"/>
<path d="M21.4271 1.11844C20.6939 0.841219 19.875 1.21116 19.5979 1.94428L18.717 4.27491C18.44 5.00795 18.8097 5.82695 19.5428 6.10407C19.708 6.16651 19.8776 6.19614 20.0443 6.19614C20.6177 6.19614 21.1575 5.84626 21.3721 5.27832L22.253 2.94769C22.5301 2.21447 22.1603 1.39556 21.4271 1.11844Z" fill="#E94625"/>
</svg>
