<svg width="48" height="48" viewBox="0 0 48 48" fill="none" xmlns="http://www.w3.org/2000/svg">
<path d="M45 24C45 20.3925 43.32 17.0887 40.4587 14.97C40.485 14.73 40.5 14.49 40.5 14.25C40.5 10.7175 37.7738 7.81125 34.3162 7.5225C33.6562 4.9275 31.2975 3 28.5 3C26.7075 3 25.0987 3.795 24 5.04375C22.9013 3.795 21.2925 3 19.5 3C16.7025 3 14.3438 4.9275 13.6838 7.5225C10.2263 7.81125 7.5 10.7175 7.5 14.25C7.5 14.49 7.515 14.73 7.54125 14.97C4.68 17.0887 3 20.3925 3 24C3 27.6075 4.68 30.9113 7.54125 33.03C7.515 33.27 7.5 33.51 7.5 33.75C7.5 37.2825 10.2263 40.1888 13.6838 40.4775C14.3438 43.0725 16.7025 45 19.5 45C21.2925 45 22.9013 44.205 24 42.9563C25.0987 44.205 26.7075 45 28.5 45C31.2975 45 33.6562 43.0725 34.3162 40.4775C37.7738 40.1888 40.5 37.2825 40.5 33.75C40.5 33.51 40.485 33.27 40.4587 33.03C43.32 30.9113 45 27.6075 45 24ZM38.0212 31.0575L37.0462 31.65L37.3575 32.7488C37.4513 33.0825 37.5 33.42 37.5 33.75C37.5 35.8162 35.8162 37.5 33.75 37.5C33.5625 37.5 33.3562 37.4737 33.1987 37.455L31.4963 37.2225V38.94V39.045C31.4737 40.68 30.135 42 28.4963 42C26.8575 42 25.4963 40.6538 25.4963 39V34.5H22.4963V39C22.4963 40.6538 21.15 42 19.4963 42C17.8425 42 16.5225 40.68 16.4963 39.0487V37.2225L14.7975 37.455C14.64 37.4775 14.4338 37.5 14.2463 37.5C12.18 37.5 10.4963 35.8162 10.4963 33.75C10.4963 33.42 10.545 33.0825 10.6388 32.7488L10.95 31.65L9.975 31.0575C7.485 29.5462 5.99625 26.9062 5.99625 24C5.99625 21.0938 7.48125 18.4538 9.975 16.9425L10.95 16.35L10.6388 15.2512C10.545 14.9175 10.4963 14.58 10.4963 14.25C10.4963 12.1838 12.18 10.5 14.2463 10.5C14.4338 10.5 14.64 10.5263 14.7975 10.545L16.5 10.7775V9.06C16.5 9.02625 16.5 8.9925 16.5 8.955C16.5225 7.32 17.8612 6 19.5 6C21.1388 6 22.5 7.34625 22.5 9V12H25.5V9C25.5 7.34625 26.8463 6 28.5 6C30.1537 6 31.4737 7.32 31.5 8.95125V10.7775L33.1987 10.545C33.3562 10.5225 33.5625 10.5 33.75 10.5C35.8162 10.5 37.5 12.1838 37.5 14.25C37.5 14.58 37.4513 14.9175 37.3575 15.2512L37.0462 16.35L38.0212 16.9425C40.5112 18.4538 42 21.0938 42 24C42 26.9062 40.515 29.5462 38.0212 31.0575Z" fill="#E94625"/>
<path d="M20.25 15C17.355 15 15 17.355 15 20.25V31.5H18V25.5H22.5V31.5H25.5V20.25C25.5 17.355 23.145 15 20.25 15ZM18 22.5V20.25C18 19.0087 19.0087 18 20.25 18C21.4913 18 22.5 19.0087 22.5 20.25V22.5H18Z" fill="#E94625"/>
<path d="M27 18H28.5V28.5H27V31.5H33V28.5H31.5V18H33V15H27V18Z" fill="#E94625"/>
</svg>
