<svg width="38" height="38" viewBox="0 0 38 38" fill="none" xmlns="http://www.w3.org/2000/svg">
<path fill-rule="evenodd" clip-rule="evenodd" d="M34.4045 22.6605C30.9019 22.6605 29.1445 26.9039 31.621 29.3805C32.0772 29.8366 32.0772 30.5766 31.621 31.0329L29.1056 33.5482C28.6495 34.0044 27.9095 34.0044 27.4532 33.5482C24.9766 31.0716 20.7333 32.829 20.7333 36.3317C20.7333 36.9772 20.2101 37.5 19.565 37.5H16.0078C15.3627 37.5 14.8395 36.9772 14.8395 36.3317C14.8395 32.8248 10.5992 31.0685 8.11961 33.5482C7.66344 34.0044 6.92344 34.0044 6.46727 33.5482L3.95188 31.0329C3.4957 30.5767 3.4957 29.8367 3.95188 29.3805C6.42844 26.9039 4.67109 22.6605 1.16844 22.6605C0.522891 22.6605 0 22.1373 0 21.4922V17.9351C0 17.2899 0.522891 16.7667 1.16836 16.7667C4.67102 16.7667 6.42836 12.5233 3.9518 10.0468C3.49563 9.59061 3.49563 8.85061 3.9518 8.39444L6.46719 5.87905C6.92336 5.42288 7.66336 5.42288 8.11953 5.87905C10.5961 8.35561 14.8395 6.59827 14.8395 3.09561C14.8395 2.45015 15.3627 1.92725 16.0077 1.92725H19.5649C20.21 1.92725 20.7332 2.45015 20.7332 3.09561C20.7332 3.6589 20.8434 4.17679 21.038 4.63944L9.69969 7.67757C9.05344 7.85069 8.68797 8.53343 8.90438 9.16686C9.34156 10.4463 9.89609 11.033 10.5555 11.2592C10.9515 11.395 11.3449 11.3897 11.7541 11.3214L11.2136 14.2519C9.98164 15.7329 9.24039 17.6366 9.24039 19.7136C9.24039 24.2655 12.7992 27.9855 17.2862 28.2445C17.2605 28.3637 17.247 28.4873 17.247 28.6139V29.8264C17.247 30.1284 17.4918 30.3733 17.7938 30.3733H24.6491C24.9511 30.3733 25.1959 30.1284 25.1959 29.8264V28.6139C25.1959 27.8114 24.6473 27.1087 23.8734 26.9096C23.7894 26.5739 23.7166 26.2476 23.6535 25.9266C25.3028 24.3686 26.3323 22.1614 26.3323 19.7135C26.3323 19.3349 26.3073 18.9622 26.2596 18.5966L28.768 17.2812C29.7572 16.7626 30.4038 15.9 30.6238 14.805L30.7358 14.2474C31.2829 15.6601 32.6159 16.7666 34.4044 16.7666C35.0499 16.7666 35.5727 17.2898 35.5727 17.935V21.4922C35.5727 22.1373 35.0499 22.6605 34.4045 22.6605ZM24.2984 11.971L22.3569 12.4912C23.218 13.0373 23.9748 13.7332 24.5906 14.5423L24.7348 14.4579C25.0708 14.2614 25.245 13.9252 25.2164 13.5377L25.1449 12.5702C25.1134 12.1425 24.7167 11.8591 24.2984 11.971ZM32.1291 0.503661C31.4957 0.673348 31.1176 1.32835 31.2873 1.96163L33.4316 9.96405C33.6013 10.5974 34.2562 10.9755 34.8895 10.8058L36.6177 10.3428C37.2511 10.1731 37.6292 9.51811 37.4595 8.88483L35.3152 0.882333C35.1455 0.248973 34.4905 -0.129152 33.8572 0.0406138L32.1291 0.503661ZM17.2406 10.2747C17.3905 10.014 17.7233 9.92405 17.9841 10.0739C18.2448 10.2237 18.3347 10.5566 18.1848 10.8173L16.5024 13.7314C16.238 14.1894 16.1774 14.66 16.3142 15.1705L17.7966 20.703C17.9036 21.1023 18.3239 21.3092 18.7055 21.1508C19.7301 20.7258 19.9081 20.2075 19.6241 19.1474L18.7246 15.7907C18.5991 15.3225 18.6636 14.8567 18.9096 14.4393L19.9225 12.7199C20.2465 12.1699 20.7376 11.7944 21.3545 11.6291L24.0164 10.9158C25.0885 10.6287 26.1528 11.3873 26.2344 12.4934L26.3059 13.4609C26.365 14.2623 25.979 14.9924 25.2859 15.3979L23.6295 16.3669C22.9269 16.7726 22.0885 17.3626 22.3377 18.2923C22.4388 18.6697 22.5534 18.9681 22.7025 19.0851C22.8441 19.1963 23.121 19.0029 23.2542 18.9426L28.2639 16.3158C28.9595 15.9512 29.401 15.3615 29.5557 14.5916L30.4283 10.2479C30.5693 9.54585 31.0932 9.03936 31.782 8.8703L31.9923 8.81874L30.4964 3.23593L22.1029 5.48499C21.8883 5.54249 21.7148 5.62944 21.5403 5.76694L15.0643 10.8694C14.6335 11.2088 14.3976 11.6462 14.3506 12.1926L13.8563 17.9481C13.8191 18.3819 14.1736 18.7276 14.6063 18.6765C15.1288 18.6147 15.697 18.3947 15.9073 17.8723L15.259 15.4524C15.0481 14.6654 15.151 13.8942 15.5583 13.1888L17.2406 10.2747ZM18.3408 29.2795H24.1023V28.6139C24.1023 28.2489 23.8016 27.9483 23.4366 27.9483H19.0064C18.6414 27.9483 18.3408 28.2489 18.3408 28.6139V29.2795ZM21.2289 18.3305C20.9997 18.3305 20.7822 18.3673 20.5686 18.4519L20.6794 18.8655C20.9395 19.8363 20.9295 20.8133 20.1563 21.5333C20.4593 21.7601 20.8394 21.8859 21.2215 21.8859C22.1677 21.8859 22.949 21.1441 22.9969 20.1998C21.9109 20.3674 21.3817 19.2258 21.2289 18.3305ZM22.2073 22.8058C21.5754 23.0369 20.8674 23.0364 20.2358 22.8046C20.18 24.1842 20.0221 25.5077 19.7068 26.8545H22.7361C22.4207 25.5076 22.2631 24.1862 22.2073 22.8058ZM19.1181 6.28475L9.98172 8.7328C9.94164 8.7435 9.92516 8.77757 9.93844 8.81647C10.2465 9.71811 10.5648 10.1068 10.9102 10.2252C11.2093 10.3278 11.6099 10.2519 12.0638 10.1356C12.1708 9.86999 12.3014 9.62288 12.4543 9.39514C12.6218 9.14507 12.9604 9.07811 13.2105 9.24561C13.4606 9.41311 13.5276 9.75171 13.3601 10.0019C13.1141 10.3683 12.9635 10.7751 12.8838 11.2078L11.9976 16.0128C11.9906 16.0508 12.0155 16.0861 12.0545 16.0898C12.3157 16.1148 12.5843 16.1233 12.7684 16.0576C12.8518 16.0279 12.9165 15.9635 12.9403 15.8394L13.2612 12.1029C13.3339 11.2557 13.7213 10.537 14.3892 10.0108L19.1181 6.28475Z" fill="white"/>
</svg>
