<svg width="40" height="40" viewBox="0 0 40 40" fill="none" xmlns="http://www.w3.org/2000/svg">
<path d="M35.6077 15.9091H34.6879C34.6118 12.9126 33.6342 10.0086 31.8828 7.57609C30.1313 5.14354 27.6874 3.29538 24.8697 2.27273H32.4904C32.601 2.70121 32.8641 3.07464 33.2304 3.32301C33.5966 3.57137 34.0409 3.67764 34.4799 3.62188C34.9189 3.56612 35.3225 3.35216 35.6151 3.02011C35.9076 2.68806 36.069 2.26072 36.069 1.81819C36.069 1.37565 35.9076 0.948311 35.6151 0.616262C35.3225 0.284214 34.9189 0.070257 34.4799 0.0144959C34.0409 -0.0412652 33.5966 0.064998 33.2304 0.313367C32.8641 0.561737 32.601 0.93516 32.4904 1.36364H21.5168V0.45455C21.5168 0.333997 21.4689 0.218382 21.3836 0.133138C21.2984 0.0478939 21.1828 4.42684e-06 21.0622 4.42684e-06H18.3349C18.2144 4.42684e-06 18.0988 0.0478939 18.0135 0.133138C17.9283 0.218382 17.8804 0.333997 17.8804 0.45455V1.36364H6.90675C6.79612 0.93516 6.53301 0.561737 6.16675 0.313367C5.80049 0.064998 5.35621 -0.0412652 4.91721 0.0144959C4.4782 0.070257 4.0746 0.284214 3.78206 0.616262C3.48952 0.948311 3.32813 1.37565 3.32812 1.81819C3.32812 2.26072 3.48952 2.68806 3.78206 3.02011C4.0746 3.35216 4.4782 3.56612 4.91721 3.62188C5.35621 3.67764 5.80049 3.57137 6.16675 3.32301C6.53301 3.07464 6.79612 2.70121 6.90675 2.27273H14.5273C11.7097 3.29538 9.26571 5.14354 7.51428 7.57609C5.76285 10.0086 4.78528 12.9126 4.70912 15.9091H3.78948C3.66893 15.9091 3.55331 15.957 3.46807 16.0422C3.38283 16.1275 3.33494 16.2431 3.33494 16.3636V19.0909C3.33494 19.2115 3.38283 19.3271 3.46807 19.4123C3.55331 19.4976 3.66893 19.5455 3.78948 19.5455H6.51675C6.63731 19.5455 6.75292 19.4976 6.83817 19.4123C6.92341 19.3271 6.9713 19.2115 6.9713 19.0909V16.3636C6.9713 16.2431 6.92341 16.1275 6.83817 16.0422C6.75292 15.957 6.63731 15.9091 6.51675 15.9091H5.6183C5.70951 12.5625 6.9964 9.35917 9.24583 6.87958C11.4953 4.39999 14.5584 2.8081 17.8804 2.39232V3.18182C17.8804 3.30238 17.9283 3.41799 18.0135 3.50323C18.0988 3.58848 18.2144 3.63637 18.3349 3.63637H21.0622C21.1828 3.63637 21.2984 3.58848 21.3836 3.50323C21.4689 3.41799 21.5168 3.30238 21.5168 3.18182V2.39232C24.8387 2.8081 27.9019 4.39999 30.1513 6.87958C32.4007 9.35917 33.6876 12.5625 33.7788 15.9091H32.8804C32.7598 15.9091 32.6442 15.957 32.559 16.0422C32.4737 16.1275 32.4258 16.2431 32.4258 16.3636V19.0909C32.4258 19.2115 32.4737 19.3271 32.559 19.4123C32.6442 19.4976 32.7598 19.5455 32.8804 19.5455H35.6077C35.7282 19.5455 35.8438 19.4976 35.9291 19.4123C36.0143 19.3271 36.0622 19.2115 36.0622 19.0909V16.3636C36.0622 16.2431 36.0143 16.1275 35.9291 16.0422C35.8438 15.957 35.7282 15.9091 35.6077 15.9091Z" fill="white"/>
<path d="M21.0188 5.70543C20.973 5.61383 20.8977 5.54037 20.8049 5.49696C20.7121 5.45355 20.6074 5.44273 20.5078 5.46627C20.4081 5.4898 20.3193 5.5463 20.2558 5.62661C20.1922 5.70692 20.1577 5.80634 20.1577 5.90875V20.6406C20.1577 20.7285 20.1832 20.8146 20.2312 20.8884C20.2792 20.9621 20.3476 21.0204 20.428 21.056C20.8113 21.2226 21.1255 21.5162 21.3177 21.8873C21.5099 22.2585 21.5683 22.6845 21.4832 23.0936C21.3981 23.5028 21.1747 23.8702 20.8505 24.1339C20.5262 24.3977 20.1211 24.5416 19.7031 24.5416C19.2852 24.5416 18.88 24.3977 18.5558 24.1339C18.2316 23.8702 18.0081 23.5028 17.923 23.0936C17.8379 22.6845 17.8964 22.2585 18.0886 21.8873C18.2808 21.5162 18.595 21.2226 18.9783 21.056C19.0587 21.0204 19.1271 20.9621 19.175 20.8884C19.223 20.8146 19.2486 20.7285 19.2486 20.6406V5.90875C19.2486 5.80634 19.2141 5.70692 19.1505 5.62661C19.087 5.5463 18.9982 5.4898 18.8985 5.46627C18.7988 5.44273 18.6941 5.45355 18.6014 5.49696C18.5086 5.54037 18.4332 5.61383 18.3875 5.70543L9.75109 22.9782C9.71955 23.0413 9.70313 23.1109 9.70312 23.1815C9.70313 23.252 9.71955 23.3217 9.75109 23.3848L13.0585 29.9997H26.3478L29.6552 23.3848C29.6867 23.3217 29.7031 23.252 29.7031 23.1815C29.7031 23.1109 29.6867 23.0413 29.6552 22.9782L21.0188 5.70543Z" fill="white"/>
<path d="M27.4247 30.9092H11.9702C11.7191 30.9092 11.5156 31.1127 11.5156 31.3637V34.091C11.5156 34.342 11.7191 34.5455 11.9702 34.5455H27.4247C27.6758 34.5455 27.8793 34.342 27.8793 34.091V31.3637C27.8793 31.1127 27.6758 30.9092 27.4247 30.9092Z" fill="white"/>
<path d="M12.8828 38.6369C12.8828 38.7574 12.9307 38.8731 13.0159 38.9583C13.1012 39.0436 13.2168 39.0914 13.3374 39.0914H26.0646C26.1852 39.0914 26.3008 39.0436 26.386 38.9583C26.4713 38.8731 26.5192 38.7574 26.5192 38.6369V35.4551H12.8828V38.6369Z" fill="white"/>
</svg>
