<svg width="40" height="40" viewBox="0 0 40 40" fill="none" xmlns="http://www.w3.org/2000/svg">
<g clip-path="url(#clip0_18667_1020)">
<path fill-rule="evenodd" clip-rule="evenodd" d="M29.0269 14.6782C29.0269 14.6427 29.0036 14.6127 28.9745 14.5963L20.0323 10.1506C20.0032 10.1379 19.974 10.1379 19.9507 10.1506L11.0084 14.5963C10.9385 14.6301 10.9371 14.7257 11.0084 14.7593L19.9507 19.2047C19.974 19.2175 20.0031 19.2175 20.0323 19.2047L28.9745 14.7593C29.0036 14.7437 29.0269 14.7136 29.0269 14.6782ZM29.9415 15.8488C29.9706 15.8661 29.9823 15.8943 29.9823 15.9268V24.6032C29.9823 24.7807 29.9007 24.9155 29.7435 24.9946L20.8071 29.4391C20.7468 29.4692 20.6731 29.4225 20.6731 29.3581V20.4671C20.6731 20.4316 20.6906 20.4016 20.7255 20.3852L29.8542 15.8451C29.8833 15.8305 29.9124 15.8321 29.9415 15.8488ZM19.2575 20.3852C19.2924 20.4016 19.3099 20.4316 19.3099 20.4671V29.3581C19.3099 29.4225 19.2362 29.4692 19.1759 29.4391L10.2395 24.9946C10.0822 24.9154 9.989 24.7807 9.989 24.6032V15.9259C9.989 15.8641 10.06 15.8137 10.123 15.8451L19.2575 20.3852ZM31.3514 14.6782V24.6033C31.3514 25.3024 30.9786 25.9059 30.3552 26.2172L20.2944 31.2179C20.1022 31.3117 19.875 31.3135 19.6886 31.2179L9.6278 26.2172C9.0045 25.9059 8.6316 25.3024 8.6316 24.6033V14.6782C8.6316 14.4188 8.7773 14.1821 9.0044 14.0665L19.6885 8.757C19.8807 8.6615 20.1021 8.6615 20.2943 8.757L30.9726 14.0665C31.2057 14.1821 31.3514 14.4188 31.3514 14.6782ZM34.6661 21.5649C34.6661 30.4266 27.0827 36.0641 20.0498 41.4678C20.0149 41.4942 19.9682 41.4942 19.9333 41.4687C19.7469 41.3231 19.5604 41.1765 19.3682 41.0309C12.4533 35.7089 5.3169 30.2047 5.3169 21.5649V10.4228C5.3169 10.3764 5.3518 10.3382 5.3926 10.3327C10.8453 9.6145 16.1408 6.0509 19.9215 1.1877C19.9583 1.14 20.0244 1.14 20.0613 1.1877C23.8537 6.0618 29.1142 9.6127 34.5902 10.3327C34.631 10.3382 34.6659 10.3764 34.6659 10.4228V21.5649H34.6661ZM41.2956 -2H34.2525C33.8739 -2 33.5709 -1.6942 33.5709 -1.3173C33.5709 -0.9396 33.8738 -0.6346 34.2525 -0.6346H39.4256C39.5089 -0.6346 39.5512 -0.5376 39.4897 -0.479L31.2873 7.723C31.2434 7.7664 31.2579 7.8504 31.3164 7.8723C31.7358 8.028 32.1611 8.1672 32.5864 8.2883C32.6213 8.2974 32.6563 8.2892 32.6796 8.2655L40.4626 0.4868C40.516 0.429 40.6141 0.4681 40.6141 0.5505V5.728C40.6141 6.1046 40.917 6.4105 41.2957 6.4105C41.6685 6.4105 41.9831 6.1046 41.9831 5.728V-1.3173C41.983 -1.6942 41.6684 -2 41.2956 -2ZM-1.3126 6.4104C-0.9339 6.4104 -0.631 6.1045 -0.631 5.7279V0.5505C-0.631 0.4692 -0.5337 0.4283 -0.4795 0.4868L7.3035 8.2637C7.3268 8.2883 7.3617 8.2964 7.3909 8.2873C7.822 8.1653 8.2415 8.027 8.6551 7.8713C8.7284 7.8461 8.7293 7.76 8.6901 7.7221L0.4934 -0.479C0.4319 -0.5375 0.4741 -0.6346 0.5575 -0.6346H5.7306C6.1093 -0.6346 6.4122 -0.9396 6.4122 -1.3173C6.4122 -1.6942 6.1093 -2 5.7306 -2H-1.3126C-1.6854 -2 -2 -1.6942 -2 -1.3173V5.728C-2 6.1046 -1.6854 6.4104 -1.3126 6.4104ZM41.2956 33.5653C40.9169 33.5653 40.614 33.8712 40.614 34.248V39.4252C40.614 39.5065 40.5167 39.5475 40.4625 39.4889L32.8835 31.9104C32.8424 31.8732 32.78 31.8734 32.7437 31.9222C32.5107 32.2444 32.2718 32.5612 32.0271 32.8743C31.998 32.9107 31.998 32.9617 32.0329 32.9944L39.4896 40.4536C39.5514 40.5134 39.5081 40.6092 39.4255 40.6092H34.2525C33.8739 40.6092 33.5709 40.915 33.5709 41.2919C33.5709 41.6697 33.8738 41.9746 34.2525 41.9746H41.2956C41.6684 41.9746 41.983 41.6697 41.983 41.2919V34.2478C41.983 33.8711 41.6684 33.5653 41.2956 33.5653ZM7.9559 32.8753C7.7112 32.5622 7.4724 32.2454 7.2394 31.9232C7.2064 31.879 7.1431 31.8719 7.0996 31.9113L-0.4794 39.4889C-0.5335 39.5475 -0.6309 39.5065 -0.6309 39.4252V34.248C-0.6309 33.8711 -0.9338 33.5653 -1.3125 33.5653C-1.697 33.5653 -1.9999 33.8712 -1.9999 34.248V41.2921C-1.9999 41.6699 -1.697 41.9748 -1.3125 41.9748H5.7306C6.1093 41.9748 6.4122 41.6699 6.4122 41.2921C6.4122 40.9153 6.1093 40.6094 5.7306 40.6094H0.5516C0.469 40.6094 0.4258 40.5135 0.4875 40.4538L7.9501 32.9964C7.985 32.9627 7.985 32.9117 7.9559 32.8753Z" fill="white"/>
</g>
<defs>
<clipPath id="clip0_18667_1020">
<rect width="40" height="40" fill="white"/>
</clipPath>
</defs>
</svg>
