<svg width="40" height="40" viewBox="0 0 40 40" fill="none" xmlns="http://www.w3.org/2000/svg">
<path fill-rule="evenodd" clip-rule="evenodd" d="M35.6545 23.9105C32.1519 23.9105 30.3945 28.1539 32.871 30.6305C33.3272 31.0866 33.3272 31.8266 32.871 32.2829L30.3556 34.7982C29.8995 35.2544 29.1595 35.2544 28.7032 34.7982C26.2266 32.3216 21.9833 34.079 21.9833 37.5817C21.9833 38.2272 21.4601 38.75 20.815 38.75H17.2578C16.6127 38.75 16.0895 38.2272 16.0895 37.5817C16.0895 34.0748 11.8492 32.3185 9.36961 34.7982C8.91344 35.2544 8.17344 35.2544 7.71727 34.7982L5.20188 32.2829C4.7457 31.8267 4.7457 31.0867 5.20188 30.6305C7.67844 28.1539 5.92109 23.9105 2.41844 23.9105C1.77289 23.9105 1.25 23.3873 1.25 22.7422V19.1851C1.25 18.5399 1.77289 18.0167 2.41836 18.0167C5.92102 18.0167 7.67836 13.7733 5.2018 11.2968C4.74563 10.8406 4.74563 10.1006 5.2018 9.64444L7.71719 7.12905C8.17336 6.67288 8.91336 6.67288 9.36953 7.12905C11.8461 9.60561 16.0895 7.84827 16.0895 4.34561C16.0895 3.70015 16.6127 3.17725 17.2577 3.17725H20.8149C21.46 3.17725 21.9832 3.70015 21.9832 4.34561C21.9832 4.9089 22.0934 5.42679 22.288 5.88944L10.9497 8.92757C10.3034 9.10069 9.93797 9.78343 10.1544 10.4169C10.5916 11.6963 11.1461 12.283 11.8055 12.5092C12.2015 12.645 12.5949 12.6397 13.0041 12.5714L12.4636 15.5019C11.2316 16.9829 10.4904 18.8866 10.4904 20.9636C10.4904 25.5155 14.0492 29.2355 18.5362 29.4945C18.5105 29.6137 18.497 29.7373 18.497 29.8639V31.0764C18.497 31.3784 18.7418 31.6233 19.0438 31.6233H25.8991C26.2011 31.6233 26.4459 31.3784 26.4459 31.0764V29.8639C26.4459 29.0614 25.8973 28.3587 25.1234 28.1596C25.0394 27.8239 24.9666 27.4976 24.9035 27.1766C26.5528 25.6186 27.5823 23.4114 27.5823 20.9635C27.5823 20.5849 27.5573 20.2122 27.5096 19.8466L30.018 18.5312C31.0072 18.0126 31.6538 17.15 31.8738 16.055L31.9858 15.4974C32.5329 16.9101 33.8659 18.0166 35.6544 18.0166C36.2999 18.0166 36.8227 18.5398 36.8227 19.185V22.7422C36.8227 23.3873 36.2999 23.9105 35.6545 23.9105ZM25.5484 13.221L23.6069 13.7412C24.468 14.2873 25.2248 14.9832 25.8406 15.7923L25.9848 15.7079C26.3208 15.5114 26.495 15.1752 26.4664 14.7877L26.3949 13.8202C26.3634 13.3925 25.9667 13.1091 25.5484 13.221ZM33.3791 1.75366C32.7457 1.92335 32.3676 2.57835 32.5373 3.21163L34.6816 11.2141C34.8513 11.8474 35.5062 12.2255 36.1395 12.0558L37.8677 11.5928C38.5011 11.4231 38.8792 10.7681 38.7095 10.1348L36.5652 2.13233C36.3955 1.49897 35.7405 1.12085 35.1072 1.29061L33.3791 1.75366ZM18.4906 11.5247C18.6405 11.264 18.9733 11.1741 19.2341 11.3239C19.4948 11.4737 19.5847 11.8066 19.4348 12.0673L17.7524 14.9814C17.488 15.4394 17.4274 15.91 17.5642 16.4205L19.0466 21.953C19.1536 22.3523 19.5739 22.5592 19.9555 22.4008C20.9801 21.9758 21.1581 21.4575 20.8741 20.3974L19.9746 17.0407C19.8491 16.5725 19.9136 16.1067 20.1596 15.6893L21.1725 13.9699C21.4965 13.4199 21.9876 13.0444 22.6045 12.8791L25.2664 12.1658C26.3385 11.8787 27.4028 12.6373 27.4844 13.7434L27.5559 14.7109C27.615 15.5123 27.229 16.2424 26.5359 16.6479L24.8795 17.6169C24.1769 18.0226 23.3385 18.6126 23.5877 19.5423C23.6888 19.9197 23.8034 20.2181 23.9525 20.3351C24.0941 20.4463 24.371 20.2529 24.5042 20.1926L29.5139 17.5658C30.2095 17.2012 30.651 16.6115 30.8057 15.8416L31.6783 11.4979C31.8193 10.7958 32.3432 10.2894 33.032 10.1203L33.2423 10.0687L31.7464 4.48593L23.3529 6.73499C23.1383 6.79249 22.9648 6.87944 22.7903 7.01694L16.3143 12.1194C15.8835 12.4588 15.6476 12.8962 15.6006 13.4426L15.1063 19.1981C15.0691 19.6319 15.4236 19.9776 15.8563 19.9265C16.3788 19.8647 16.947 19.6447 17.1573 19.1223L16.509 16.7024C16.2981 15.9154 16.401 15.1442 16.8083 14.4388L18.4906 11.5247ZM19.5908 30.5295H25.3523V29.8639C25.3523 29.4989 25.0516 29.1983 24.6866 29.1983H20.2564C19.8914 29.1983 19.5908 29.4989 19.5908 29.8639V30.5295ZM22.4789 19.5805C22.2497 19.5805 22.0322 19.6173 21.8186 19.7019L21.9294 20.1155C22.1895 21.0863 22.1795 22.0633 21.4063 22.7833C21.7093 23.0101 22.0894 23.1359 22.4715 23.1359C23.4177 23.1359 24.199 22.3941 24.2469 21.4498C23.1609 21.6174 22.6317 20.4758 22.4789 19.5805ZM23.4573 24.0558C22.8254 24.2869 22.1174 24.2864 21.4858 24.0546C21.43 25.4342 21.2721 26.7577 20.9568 28.1045H23.9861C23.6707 26.7576 23.5131 25.4362 23.4573 24.0558ZM20.3681 7.53475L11.2317 9.9828C11.1916 9.9935 11.1752 10.0276 11.1884 10.0665C11.4965 10.9681 11.8148 11.3568 12.1602 11.4752C12.4593 11.5778 12.8599 11.5019 13.3138 11.3856C13.4208 11.12 13.5514 10.8729 13.7043 10.6451C13.8718 10.3951 14.2104 10.3281 14.4605 10.4956C14.7106 10.6631 14.7776 11.0017 14.6101 11.2519C14.3641 11.6183 14.2135 12.0251 14.1338 12.4578L13.2476 17.2628C13.2406 17.3008 13.2655 17.3361 13.3045 17.3398C13.5657 17.3648 13.8343 17.3733 14.0184 17.3076C14.1018 17.2779 14.1665 17.2135 14.1903 17.0894L14.5112 13.3529C14.5839 12.5057 14.9713 11.787 15.6392 11.2608L20.3681 7.53475Z" fill="#111111"/>
</svg>
