<svg width="40" height="40" viewBox="0 0 40 40" fill="none" xmlns="http://www.w3.org/2000/svg">
<path d="M21.0969 32.0328L22.6982 36.9991C22.8607 37.5241 23.5107 37.6866 23.8982 37.2991C26.3107 34.8866 30.3107 30.8241 30.5857 28.5991C30.7157 27.6466 30.3682 26.3791 29.9794 25.2591C27.6419 27.6353 24.7307 29.9428 21.0969 32.0328ZM14.7382 10.0178C13.6194 9.62905 12.3507 9.28155 11.3982 9.41155C9.17317 9.68655 5.11067 13.6866 2.69817 16.0991C2.31067 16.4866 2.47317 17.1366 2.99817 17.2991L7.96442 18.8991C10.0544 15.2666 12.3619 12.3553 14.7382 10.0178ZM11.5744 33.9653C8.11692 35.9478 4.08692 35.9615 4.03692 35.9615C4.03692 35.9103 4.04942 31.8816 6.03317 28.4241L11.5744 33.9653ZM26.8182 10.7078C26.1582 10.7078 25.5382 10.9653 25.0719 11.4316C24.6044 11.8991 24.3469 12.5191 24.3469 13.1791C24.3469 13.8391 24.6044 14.4603 25.0719 14.9266C26.0032 15.8616 27.6319 15.8616 28.5657 14.9266C28.9095 14.5802 29.1433 14.14 29.2376 13.6612C29.3319 13.1825 29.2826 12.6865 29.0959 12.2356C28.9091 11.7848 28.5933 11.3992 28.188 11.1274C27.7827 10.8555 27.3062 10.7096 26.8182 10.7078Z" fill="#111111"/>
<path d="M35.9246 2.48771C31.2246 2.57646 16.8796 4.43646 7.93464 22.9627C7.64714 23.5577 7.77214 24.274 8.23964 24.7402L15.2559 31.7565C15.7234 32.224 16.4384 32.349 17.0334 32.0615C35.5609 23.1177 37.4209 8.77271 37.5096 4.07271C37.5144 3.86325 37.4767 3.655 37.3987 3.46054C37.3208 3.26608 37.2042 3.08943 37.0561 2.94129C36.9079 2.79314 36.7313 2.67657 36.5368 2.59861C36.3423 2.52065 36.1341 2.48292 35.9246 2.48771ZM30.1571 16.5177C29.2646 17.409 28.0796 17.9002 26.8184 17.9002C25.5571 17.9002 24.3709 17.409 23.4796 16.5177C22.5884 15.6265 22.0971 14.4402 22.0971 13.179C22.0971 11.9177 22.5896 10.7315 23.4796 9.84021C25.2621 8.05771 28.3721 8.05771 30.1571 9.84021C31.0409 10.7266 31.5372 11.9273 31.5372 13.179C31.5372 14.4307 31.0409 15.6313 30.1571 16.5177Z" fill="#111111"/>
</svg>
