<svg width="40" height="40" viewBox="0 0 40 40" fill="none" xmlns="http://www.w3.org/2000/svg">
<g clip-path="url(#clip0_18797_507)">
<path d="M35.6077 15.9086L34.6879 15.9086C34.6118 12.9121 33.6342 10.0081 31.8828 7.5756C30.1313 5.14306 27.6874 3.29489 24.8697 2.27224L32.4904 2.27224C32.601 2.70072 32.8641 3.07415 33.2304 3.32252C33.5966 3.57089 34.0409 3.67715 34.4799 3.62139C34.9189 3.56563 35.3225 3.35167 35.6151 3.01962C35.9076 2.68757 36.069 2.26023 36.069 1.8177C36.069 1.37516 35.9076 0.947822 35.6151 0.615774C35.3225 0.283726 34.9189 0.0697687 34.4799 0.0140076C34.0409 -0.0417535 33.5966 0.0645097 33.2304 0.312879C32.8641 0.561248 32.601 0.934671 32.4904 1.36315L21.5167 1.36315V0.454062C21.5167 0.333509 21.4689 0.217893 21.3836 0.132649C21.2984 0.0474056 21.1828 -0.000483854 21.0622 -0.000483854L18.3349 -0.000483854C18.2144 -0.000483854 18.0988 0.0474056 18.0135 0.132649C17.9283 0.217893 17.8804 0.333509 17.8804 0.454062V1.36315L6.90675 1.36315C6.79612 0.934671 6.53301 0.561248 6.16675 0.312879C5.80049 0.0645097 5.35621 -0.0417535 4.91721 0.0140076C4.4782 0.0697687 4.0746 0.283726 3.78206 0.615774C3.48952 0.947822 3.32813 1.37516 3.32812 1.8177C3.32812 2.26023 3.48952 2.68757 3.78206 3.01962C4.0746 3.35167 4.4782 3.56563 4.91721 3.62139C5.35621 3.67715 5.80049 3.57089 6.16675 3.32252C6.53301 3.07415 6.79612 2.70072 6.90675 2.27224L14.5273 2.27224C11.7097 3.29489 9.26571 5.14306 7.51428 7.5756C5.76285 10.0081 4.78528 12.9121 4.70912 15.9086H3.78948C3.66893 15.9086 3.55331 15.9565 3.46807 16.0417C3.38283 16.127 3.33494 16.2426 3.33494 16.3632V19.0904C3.33494 19.211 3.38283 19.3266 3.46807 19.4118C3.55331 19.4971 3.66893 19.545 3.78948 19.545H6.51675C6.63731 19.545 6.75292 19.4971 6.83816 19.4118C6.92341 19.3266 6.9713 19.211 6.9713 19.0904V16.3632C6.9713 16.2426 6.92341 16.127 6.83816 16.0417C6.75292 15.9565 6.63731 15.9086 6.51675 15.9086H5.6183C5.70951 12.562 6.9964 9.35869 9.24583 6.87909C11.4953 4.3995 14.5584 2.80761 17.8804 2.39183V3.18133C17.8804 3.30189 17.9283 3.4175 18.0135 3.50275C18.0988 3.58799 18.2144 3.63588 18.3349 3.63588H21.0622C21.1828 3.63588 21.2984 3.58799 21.3836 3.50275C21.4689 3.4175 21.5167 3.30189 21.5167 3.18133V2.39183C24.8387 2.80761 27.9019 4.3995 30.1513 6.87909C32.4007 9.35869 33.6876 12.562 33.7788 15.9086H32.8804C32.7598 15.9086 32.6442 15.9565 32.559 16.0417C32.4737 16.127 32.4258 16.2426 32.4258 16.3632V19.0904C32.4258 19.211 32.4737 19.3266 32.559 19.4118C32.6442 19.4971 32.7598 19.545 32.8804 19.545H35.6077C35.7282 19.545 35.8438 19.4971 35.9291 19.4118C36.0143 19.3266 36.0622 19.211 36.0622 19.0904V16.3632C36.0622 16.2426 36.0143 16.127 35.9291 16.0417C35.8438 15.9565 35.7282 15.9086 35.6077 15.9086Z" fill="#111111"/>
<path d="M21.0188 5.70543C20.973 5.61383 20.8977 5.54037 20.8049 5.49696C20.7121 5.45355 20.6074 5.44273 20.5078 5.46627C20.4081 5.4898 20.3193 5.5463 20.2558 5.62661C20.1922 5.70692 20.1577 5.80634 20.1577 5.90875V20.6406C20.1577 20.7285 20.1832 20.8146 20.2312 20.8884C20.2792 20.9621 20.3476 21.0204 20.428 21.056C20.8113 21.2226 21.1255 21.5162 21.3177 21.8873C21.5099 22.2585 21.5683 22.6845 21.4832 23.0936C21.3981 23.5028 21.1747 23.8702 20.8505 24.1339C20.5262 24.3977 20.1211 24.5416 19.7031 24.5416C19.2852 24.5416 18.88 24.3977 18.5558 24.1339C18.2316 23.8702 18.0081 23.5028 17.923 23.0936C17.8379 22.6845 17.8964 22.2585 18.0886 21.8873C18.2808 21.5162 18.595 21.2226 18.9783 21.056C19.0587 21.0204 19.1271 20.9621 19.175 20.8884C19.223 20.8146 19.2486 20.7285 19.2486 20.6406V5.90875C19.2486 5.80634 19.2141 5.70692 19.1505 5.62661C19.087 5.5463 18.9982 5.4898 18.8985 5.46627C18.7988 5.44273 18.6941 5.45355 18.6014 5.49696C18.5086 5.54037 18.4332 5.61383 18.3875 5.70543L9.75109 22.9782C9.71955 23.0413 9.70313 23.1109 9.70312 23.1815C9.70313 23.252 9.71955 23.3217 9.75109 23.3848L13.0585 29.9997H26.3478L29.6552 23.3848C29.6867 23.3217 29.7031 23.252 29.7031 23.1815C29.7031 23.1109 29.6867 23.0413 29.6552 22.9782L21.0188 5.70543Z" fill="#111111"/>
<path d="M27.4247 30.9087H11.9702C11.7191 30.9087 11.5156 31.1122 11.5156 31.3632V34.0905C11.5156 34.3415 11.7191 34.5451 11.9702 34.5451H27.4247C27.6758 34.5451 27.8793 34.3415 27.8793 34.0905V31.3632C27.8793 31.1122 27.6758 30.9087 27.4247 30.9087Z" fill="#111111"/>
<path d="M12.8828 38.6369C12.8828 38.7574 12.9307 38.8731 13.0159 38.9583C13.1012 39.0436 13.2168 39.0914 13.3374 39.0914H26.0646C26.1852 39.0914 26.3008 39.0436 26.386 38.9583C26.4713 38.8731 26.5192 38.7574 26.5192 38.6369V35.4551H12.8828V38.6369Z" fill="#111111"/>
</g>
<defs>
<clipPath id="clip0_18797_507">
<rect width="40" height="40" fill="white"/>
</clipPath>
</defs>
</svg>
