<svg width="188" height="34" viewBox="0 0 188 34" fill="none" xmlns="http://www.w3.org/2000/svg">
<path d="M32.7892 10.6928C32.2747 9.40393 30.7292 8.87807 29.5355 9.58576L29.3459 9.69816C28.3741 10.2743 28.0058 11.4683 28.4178 12.5201C28.9737 13.9389 29.2627 15.4589 29.2627 17.0001C29.2627 22.9518 25.0008 27.9267 19.3683 29.0332V19.3687H22.2644C23.5726 19.3687 24.6331 18.3082 24.6331 17C24.6331 15.6919 23.5727 14.6314 22.2644 14.6314H19.3683V0H16.9997C7.62583 0 0 7.62608 0 17C0 19.052 0.371294 21.0817 1.08589 22.9853C1.59631 24.3449 3.22017 24.9079 4.47897 24.184C5.49746 23.5983 5.90686 22.3644 5.49933 21.2625C5.27193 20.6477 5.10122 20.0131 4.97478 19.3686H14.6311V34H16.9998C26.3737 34 34 26.374 34 17C33.9999 14.8295 33.5857 12.6884 32.7892 10.6928ZM4.97396 14.6315C5.93073 9.76694 9.76652 5.92271 14.6311 4.96692V14.6315H4.97396Z" fill="white"/>
<path d="M27.0891 7.80871C28.4415 7.80871 29.5377 6.71247 29.5377 5.36019C29.5377 4.00791 28.4415 2.91162 27.0891 2.91162C25.7369 2.91162 24.6406 4.00791 24.6406 5.36019C24.6406 6.71247 25.7369 7.80871 27.0891 7.80871Z" fill="white"/>
<path d="M46.8874 29L55.3534 4.18H63.2414L71.9454 29H66.9814L59.6034 7.478L61.3374 8.226H57.0874L58.8554 7.478L51.7154 29H46.8874ZM52.8034 22.404L54.3334 18.324H64.3974L65.8934 22.404H52.8034ZM74.6378 29V4.18H79.4658V29H74.6378ZM96.1571 29.646C94.0264 29.646 92.1451 29.2947 90.5131 28.592C88.9038 27.8667 87.5438 26.9033 86.4331 25.702C85.3451 24.478 84.5178 23.1067 83.9511 21.588C83.4071 20.0467 83.1351 18.4487 83.1351 16.794V16.046C83.1351 14.482 83.4071 12.952 83.9511 11.456C84.4951 9.96 85.2884 8.61133 86.3311 7.41C87.3964 6.20867 88.6998 5.25667 90.2411 4.554C91.8051 3.82867 93.5958 3.466 95.6131 3.466C97.7891 3.466 99.7158 3.874 101.393 4.69C103.07 5.48333 104.419 6.60533 105.439 8.056C106.459 9.484 107.06 11.15 107.241 13.054H102.379C102.22 11.9887 101.824 11.082 101.189 10.334C100.554 9.56333 99.7498 8.974 98.7751 8.566C97.8231 8.158 96.7691 7.954 95.6131 7.954C94.4571 7.954 93.4031 8.158 92.4511 8.566C91.5218 8.974 90.7284 9.552 90.0711 10.3C89.4138 11.048 88.9038 11.9433 88.5411 12.986C88.2011 14.0287 88.0311 15.1847 88.0311 16.454C88.0311 17.8367 88.2238 19.072 88.6091 20.16C88.9944 21.248 89.5384 22.1773 90.2411 22.948C90.9438 23.696 91.7938 24.274 92.7911 24.682C93.7884 25.0673 94.9104 25.26 96.1571 25.26C97.8118 25.26 99.2624 24.92 100.509 24.24C101.756 23.5373 102.662 22.6307 103.229 21.52L102.379 25.43V19.038H106.833V24.546C105.768 26.1553 104.317 27.4133 102.481 28.32C100.645 29.204 98.5371 29.646 96.1571 29.646ZM95.3751 19.99V16.386H108.907V19.99H95.3751ZM123.386 29.646C121.142 29.646 119.193 29.2493 117.538 28.456C115.906 27.6627 114.546 26.6313 113.458 25.362C112.393 24.07 111.588 22.6873 111.044 21.214C110.523 19.718 110.262 18.2787 110.262 16.896V16.148C110.262 14.6293 110.534 13.122 111.078 11.626C111.622 10.1073 112.438 8.736 113.526 7.512C114.637 6.288 116.008 5.31333 117.64 4.588C119.272 3.84 121.187 3.466 123.386 3.466C125.562 3.466 127.466 3.84 129.098 4.588C130.73 5.31333 132.09 6.288 133.178 7.512C134.289 8.736 135.116 10.1073 135.66 11.626C136.204 13.122 136.476 14.6293 136.476 16.148V16.896C136.476 18.2787 136.204 19.718 135.66 21.214C135.139 22.6873 134.334 24.07 133.246 25.362C132.181 26.6313 130.821 27.6627 129.166 28.456C127.534 29.2493 125.607 29.646 123.386 29.646ZM123.386 25.158C124.655 25.158 125.789 24.9313 126.786 24.478C127.806 24.0247 128.667 23.4013 129.37 22.608C130.095 21.792 130.639 20.874 131.002 19.854C131.387 18.8113 131.58 17.712 131.58 16.556C131.58 15.3093 131.387 14.1647 131.002 13.122C130.639 12.0793 130.095 11.1727 129.37 10.402C128.667 9.63133 127.806 9.03067 126.786 8.6C125.766 8.16933 124.633 7.954 123.386 7.954C122.117 7.954 120.972 8.16933 119.952 8.6C118.932 9.03067 118.059 9.63133 117.334 10.402C116.631 11.1727 116.087 12.0793 115.702 13.122C115.339 14.1647 115.158 15.3093 115.158 16.556C115.158 17.712 115.339 18.8113 115.702 19.854C116.087 20.874 116.631 21.792 117.334 22.608C118.059 23.4013 118.932 24.0247 119.952 24.478C120.972 24.9313 122.117 25.158 123.386 25.158ZM140.08 29V4.01H144.908V29H140.08ZM155.244 29L147.628 18.188H153.034L160.888 29H155.244ZM143.48 20.704V16.794H149.804C150.688 16.794 151.447 16.6127 152.082 16.25C152.739 15.8873 153.249 15.3773 153.612 14.72C153.974 14.0627 154.156 13.3147 154.156 12.476C154.156 11.6147 153.974 10.8553 153.612 10.198C153.249 9.54067 152.739 9.03067 152.082 8.668C151.447 8.30533 150.688 8.124 149.804 8.124H143.48V4.01H149.294C151.288 4.01 153.011 4.30467 154.462 4.894C155.935 5.48333 157.068 6.37867 157.862 7.58C158.655 8.78133 159.052 10.2887 159.052 12.102V12.646C159.052 14.482 158.644 15.9893 157.828 17.168C157.034 18.3467 155.912 19.2307 154.462 19.82C153.011 20.4093 151.288 20.704 149.294 20.704H143.48ZM161.04 29L169.506 4.18H177.394L186.098 29H181.134L173.756 7.478L175.49 8.226H171.24L173.008 7.478L165.868 29H161.04ZM166.956 22.404L168.486 18.324H178.55L180.046 22.404H166.956Z" fill="white"/>
</svg>
