<svg width="111" height="26" viewBox="0 0 111 26" fill="none" xmlns="http://www.w3.org/2000/svg">
<path d="M23.1453 7.54785C22.7822 6.63807 21.6912 6.26687 20.8486 6.76642L20.7148 6.84576C20.0288 7.25244 19.7688 8.09526 20.0596 8.83771C20.452 9.83921 20.656 10.9121 20.656 12.0001C20.656 16.2013 17.6476 19.713 13.6718 20.4941V13.672H15.716C16.6395 13.672 17.388 12.9235 17.388 12C17.388 11.0767 16.6395 10.328 15.716 10.328H13.6718V0H11.9998C5.38294 0 0 5.38312 0 12C0 13.4485 0.26209 14.8812 0.766509 16.2249C1.12681 17.1846 2.27306 17.582 3.16163 17.0711C3.88056 16.6576 4.16955 15.7867 3.88188 15.0088C3.72136 14.5749 3.60086 14.1269 3.51161 13.672H10.3278V24H11.9998C18.6167 24 24 18.6169 24 12C23.9999 10.4678 23.7076 8.95649 23.1453 7.54785ZM3.51103 10.3281C4.1864 6.89431 6.89401 4.18074 10.3278 3.50606V10.3281H3.51103Z" fill="#242426"/>
<path d="M19.119 5.51194C20.0736 5.51194 20.8474 4.73813 20.8474 3.78358C20.8474 2.82903 20.0736 2.05518 19.119 2.05518C18.1645 2.05518 17.3906 2.82903 17.3906 3.78358C17.3906 4.73813 18.1645 5.51194 19.119 5.51194Z" fill="#242426"/>
<path d="M32.889 20L38.865 2.48H44.433L50.577 20H47.073L41.865 4.808L43.089 5.336H40.089L41.337 4.808L36.297 20H32.889ZM37.065 15.344L38.145 12.464H45.249L46.305 15.344H37.065ZM52.5395 20V6.968H55.8755V20H52.5395ZM50.7155 9.464V6.968H55.8755V9.464H50.7155ZM53.7635 5.408C53.1075 5.408 52.6195 5.24 52.2995 4.904C51.9955 4.552 51.8435 4.12 51.8435 3.608C51.8435 3.064 51.9955 2.624 52.2995 2.288C52.6195 1.952 53.1075 1.784 53.7635 1.784C54.4195 1.784 54.8995 1.952 55.2035 2.288C55.5075 2.624 55.6595 3.064 55.6595 3.608C55.6595 4.12 55.5075 4.552 55.2035 4.904C54.8995 5.24 54.4195 5.408 53.7635 5.408ZM63.8082 25.136C63.1842 25.136 62.5442 25.112 61.8882 25.064C61.2482 25.016 60.6482 24.952 60.0882 24.872V22.088C60.6642 22.152 61.2802 22.208 61.9362 22.256C62.5922 22.32 63.2082 22.352 63.7842 22.352C64.8562 22.352 65.7202 22.224 66.3762 21.968C67.0482 21.712 67.5362 21.304 67.8402 20.744C68.1602 20.2 68.3202 19.504 68.3202 18.656V16.088L69.0402 14.456C68.9922 15.656 68.7442 16.68 68.2962 17.528C67.8482 18.36 67.2402 19 66.4722 19.448C65.7042 19.88 64.8162 20.096 63.8082 20.096C62.9122 20.096 62.0962 19.928 61.3602 19.592C60.6402 19.256 60.0162 18.792 59.4882 18.2C58.9762 17.608 58.5762 16.912 58.2882 16.112C58.0002 15.312 57.8562 14.456 57.8562 13.544V13.04C57.8562 12.128 58.0002 11.28 58.2882 10.496C58.5922 9.696 59.0162 9 59.5602 8.408C60.1042 7.816 60.7522 7.36 61.5042 7.04C62.2562 6.72 63.0882 6.56 64.0002 6.56C65.0722 6.56 66.0002 6.792 66.7842 7.256C67.5842 7.72 68.2082 8.392 68.6562 9.272C69.1042 10.152 69.3522 11.232 69.4002 12.512L68.8242 12.608V6.968H71.4642V18.464C71.4642 20.048 71.1922 21.328 70.6482 22.304C70.1042 23.28 69.2642 23.992 68.1282 24.44C67.0082 24.904 65.5682 25.136 63.8082 25.136ZM64.7682 17.24C65.4082 17.24 65.9922 17.096 66.5202 16.808C67.0482 16.52 67.4722 16.104 67.7922 15.56C68.1122 15.016 68.2722 14.36 68.2722 13.592V12.752C68.2722 12.016 68.1042 11.392 67.7682 10.88C67.4482 10.368 67.0242 9.984 66.4962 9.728C65.9682 9.456 65.3922 9.32 64.7682 9.32C64.0642 9.32 63.4402 9.488 62.8962 9.824C62.3682 10.144 61.9522 10.6 61.6482 11.192C61.3442 11.784 61.1922 12.488 61.1922 13.304C61.1922 14.104 61.3442 14.8 61.6482 15.392C61.9522 15.984 62.3682 16.44 62.8962 16.76C63.4402 17.08 64.0642 17.24 64.7682 17.24ZM80.367 20.456C79.215 20.456 78.199 20.272 77.319 19.904C76.439 19.536 75.695 19.04 75.087 18.416C74.479 17.776 74.015 17.056 73.695 16.256C73.391 15.456 73.239 14.624 73.239 13.76V13.256C73.239 12.36 73.399 11.512 73.719 10.712C74.055 9.896 74.527 9.176 75.135 8.552C75.759 7.912 76.511 7.416 77.391 7.064C78.271 6.696 79.263 6.512 80.367 6.512C81.471 6.512 82.463 6.696 83.343 7.064C84.223 7.416 84.967 7.912 85.575 8.552C86.199 9.176 86.671 9.896 86.991 10.712C87.311 11.512 87.471 12.36 87.471 13.256V13.76C87.471 14.624 87.311 15.456 86.991 16.256C86.687 17.056 86.231 17.776 85.623 18.416C85.015 19.04 84.271 19.536 83.391 19.904C82.511 20.272 81.503 20.456 80.367 20.456ZM80.367 17.6C81.183 17.6 81.871 17.424 82.431 17.072C82.991 16.704 83.415 16.216 83.703 15.608C83.991 14.984 84.135 14.28 84.135 13.496C84.135 12.696 83.983 11.992 83.679 11.384C83.391 10.76 82.959 10.272 82.383 9.92C81.823 9.552 81.151 9.368 80.367 9.368C79.583 9.368 78.903 9.552 78.327 9.92C77.767 10.272 77.335 10.76 77.031 11.384C76.727 11.992 76.575 12.696 76.575 13.496C76.575 14.28 76.719 14.984 77.007 15.608C77.311 16.216 77.743 16.704 78.303 17.072C78.863 17.424 79.551 17.6 80.367 17.6ZM89.3921 20V6.968H92.0321V12.488H91.9601C91.9601 10.616 92.3601 9.2 93.1601 8.24C93.9601 7.28 95.1361 6.8 96.6881 6.8H97.1681V9.704H96.2561C95.1361 9.704 94.2641 10.008 93.6401 10.616C93.0321 11.208 92.7281 12.072 92.7281 13.208V20H89.3921ZM106.226 20V16.136H105.674V11.84C105.674 11.088 105.49 10.528 105.122 10.16C104.754 9.792 104.186 9.608 103.418 9.608C103.018 9.608 102.538 9.616 101.978 9.632C101.418 9.648 100.85 9.672 100.274 9.704C99.7136 9.72 99.2096 9.744 98.7616 9.776V6.944C99.1296 6.912 99.5456 6.88 100.01 6.848C100.474 6.816 100.946 6.8 101.426 6.8C101.922 6.784 102.386 6.776 102.818 6.776C104.162 6.776 105.274 6.952 106.154 7.304C107.05 7.656 107.722 8.208 108.17 8.96C108.634 9.712 108.866 10.696 108.866 11.912V20H106.226ZM102.026 20.336C101.082 20.336 100.25 20.168 99.5296 19.832C98.8256 19.496 98.2736 19.016 97.8736 18.392C97.4896 17.768 97.2976 17.016 97.2976 16.136C97.2976 15.176 97.5296 14.392 97.9936 13.784C98.4736 13.176 99.1376 12.72 99.9856 12.416C100.85 12.112 101.858 11.96 103.01 11.96H106.034V13.952H102.962C102.194 13.952 101.602 14.144 101.186 14.528C100.786 14.896 100.586 15.376 100.586 15.968C100.586 16.56 100.786 17.04 101.186 17.408C101.602 17.776 102.194 17.96 102.962 17.96C103.426 17.96 103.85 17.88 104.234 17.72C104.634 17.544 104.962 17.256 105.218 16.856C105.49 16.44 105.642 15.88 105.674 15.176L106.49 16.112C106.41 17.024 106.186 17.792 105.818 18.416C105.466 19.04 104.97 19.52 104.33 19.856C103.706 20.176 102.938 20.336 102.026 20.336Z" fill="#242426"/>
</svg>
