<svg width="146" height="34" viewBox="0 0 146 34" fill="none" xmlns="http://www.w3.org/2000/svg">
<path d="M30.8604 10.0638C30.3762 8.85076 28.9216 8.35583 27.7981 9.02189L27.6197 9.12768C26.7051 9.66992 26.3584 10.7937 26.7462 11.7836C27.2693 13.1189 27.5413 14.5495 27.5413 16.0001C27.5413 21.6017 23.5301 26.284 18.229 27.3254V18.2294H20.9547C22.1859 18.2294 23.184 17.2313 23.184 16C23.184 14.7689 22.186 13.7707 20.9547 13.7707H18.229V0H15.9997C7.17725 0 0 7.17749 0 16C0 17.9313 0.349453 19.8416 1.02201 21.6332C1.50241 22.9128 3.03075 23.4427 4.2155 22.7614C5.17408 22.2102 5.55939 21.0489 5.17584 20.0118C4.96182 19.4332 4.80115 18.8359 4.68214 18.2293H13.7704V32H15.9998C24.8223 32 32 24.8226 32 16C31.9999 13.9571 31.6101 11.942 30.8604 10.0638ZM4.68138 13.7708C5.58187 9.19241 9.19202 5.57432 13.7704 4.67474V13.7708H4.68138Z" fill="#242426"/>
<path d="M25.492 7.34925C26.7648 7.34925 27.7965 6.31751 27.7965 5.04477C27.7965 3.77204 26.7648 2.74023 25.492 2.74023C24.2193 2.74023 23.1875 3.77204 23.1875 5.04477C23.1875 6.31751 24.2193 7.34925 25.492 7.34925Z" fill="#242426"/>
<path d="M40.6854 27L48.6534 3.64H56.0774L64.2694 27H59.5974L52.6534 6.744L54.2854 7.448H50.2854L51.9494 6.744L45.2294 27H40.6854ZM46.2534 20.792L47.6934 16.952H57.1654L58.5734 20.792H46.2534ZM67.2194 27V9.624H71.6674V27H67.2194ZM64.7874 12.952V9.624H71.6674V12.952H64.7874ZM68.8514 7.544C67.9767 7.544 67.326 7.32 66.8994 6.872C66.494 6.40267 66.2914 5.82667 66.2914 5.144C66.2914 4.41867 66.494 3.832 66.8994 3.384C67.326 2.936 67.9767 2.712 68.8514 2.712C69.726 2.712 70.366 2.936 70.7714 3.384C71.1767 3.832 71.3794 4.41867 71.3794 5.144C71.3794 5.82667 71.1767 6.40267 70.7714 6.872C70.366 7.32 69.726 7.544 68.8514 7.544ZM82.5776 33.848C81.7456 33.848 80.8923 33.816 80.0176 33.752C79.1643 33.688 78.3643 33.6027 77.6176 33.496V29.784C78.3856 29.8693 79.207 29.944 80.0816 30.008C80.9563 30.0933 81.7776 30.136 82.5456 30.136C83.975 30.136 85.127 29.9653 86.0016 29.624C86.8976 29.2827 87.5483 28.7387 87.9536 27.992C88.3803 27.2667 88.5936 26.3387 88.5936 25.208V21.784L89.5536 19.608C89.4896 21.208 89.159 22.5733 88.5616 23.704C87.9643 24.8133 87.1536 25.6667 86.1296 26.264C85.1056 26.84 83.9216 27.128 82.5776 27.128C81.383 27.128 80.295 26.904 79.3136 26.456C78.3536 26.008 77.5216 25.3893 76.8176 24.6C76.135 23.8107 75.6016 22.8827 75.2176 21.816C74.8336 20.7493 74.6416 19.608 74.6416 18.392V17.72C74.6416 16.504 74.8336 15.3733 75.2176 14.328C75.623 13.2613 76.1883 12.3333 76.9136 11.544C77.639 10.7547 78.503 10.1467 79.5056 9.72C80.5083 9.29333 81.6176 9.08 82.8336 9.08C84.263 9.08 85.5003 9.38933 86.5456 10.008C87.6123 10.6267 88.4443 11.5227 89.0416 12.696C89.639 13.8693 89.9696 15.3093 90.0336 17.016L89.2656 17.144V9.624H92.7856V24.952C92.7856 27.064 92.423 28.7707 91.6976 30.072C90.9723 31.3733 89.8523 32.3227 88.3376 32.92C86.8443 33.5387 84.9243 33.848 82.5776 33.848ZM83.8576 23.32C84.711 23.32 85.4896 23.128 86.1936 22.744C86.8976 22.36 87.463 21.8053 87.8896 21.08C88.3163 20.3547 88.5296 19.48 88.5296 18.456V17.336C88.5296 16.3547 88.3056 15.5227 87.8576 14.84C87.431 14.1573 86.8656 13.6453 86.1616 13.304C85.4576 12.9413 84.6896 12.76 83.8576 12.76C82.919 12.76 82.087 12.984 81.3616 13.432C80.6576 13.8587 80.103 14.4667 79.6976 15.256C79.2923 16.0453 79.0896 16.984 79.0896 18.072C79.0896 19.1387 79.2923 20.0667 79.6976 20.856C80.103 21.6453 80.6576 22.2533 81.3616 22.68C82.087 23.1067 82.919 23.32 83.8576 23.32ZM104.989 27.608C103.453 27.608 102.099 27.3627 100.925 26.872C99.752 26.3813 98.76 25.72 97.9494 24.888C97.1387 24.0347 96.52 23.0747 96.0934 22.008C95.688 20.9413 95.4854 19.832 95.4854 18.68V18.008C95.4854 16.8133 95.6987 15.6827 96.1254 14.616C96.5734 13.528 97.2027 12.568 98.0134 11.736C98.8454 10.8827 99.848 10.2213 101.021 9.752C102.195 9.26133 103.517 9.016 104.989 9.016C106.461 9.016 107.784 9.26133 108.957 9.752C110.131 10.2213 111.123 10.8827 111.933 11.736C112.765 12.568 113.395 13.528 113.821 14.616C114.248 15.6827 114.461 16.8133 114.461 18.008V18.68C114.461 19.832 114.248 20.9413 113.821 22.008C113.416 23.0747 112.808 24.0347 111.997 24.888C111.187 25.72 110.195 26.3813 109.021 26.872C107.848 27.3627 106.504 27.608 104.989 27.608ZM104.989 23.8C106.077 23.8 106.995 23.5653 107.741 23.096C108.488 22.6053 109.053 21.9547 109.437 21.144C109.821 20.312 110.013 19.3733 110.013 18.328C110.013 17.2613 109.811 16.3227 109.405 15.512C109.021 14.68 108.445 14.0293 107.677 13.56C106.931 13.0693 106.035 12.824 104.989 12.824C103.944 12.824 103.037 13.0693 102.269 13.56C101.523 14.0293 100.947 14.68 100.541 15.512C100.136 16.3227 99.9334 17.2613 99.9334 18.328C99.9334 19.3733 100.125 20.312 100.509 21.144C100.915 21.9547 101.491 22.6053 102.237 23.096C102.984 23.5653 103.901 23.8 104.989 23.8ZM117.356 27V9.624H120.876V16.984H120.78C120.78 14.488 121.313 12.6 122.38 11.32C123.447 10.04 125.015 9.4 127.084 9.4H127.724V13.272H126.508C125.015 13.272 123.852 13.6773 123.02 14.488C122.209 15.2773 121.804 16.4293 121.804 17.944V27H117.356ZM140.134 27V21.848H139.398V16.12C139.398 15.1173 139.153 14.3707 138.662 13.88C138.171 13.3893 137.414 13.144 136.39 13.144C135.857 13.144 135.217 13.1547 134.47 13.176C133.723 13.1973 132.966 13.2293 132.198 13.272C131.451 13.2933 130.779 13.3253 130.182 13.368V9.592C130.673 9.54933 131.227 9.50667 131.846 9.464C132.465 9.42133 133.094 9.4 133.734 9.4C134.395 9.37867 135.014 9.368 135.59 9.368C137.382 9.368 138.865 9.60267 140.038 10.072C141.233 10.5413 142.129 11.2773 142.726 12.28C143.345 13.2827 143.654 14.5947 143.654 16.216V27H140.134ZM134.534 27.448C133.275 27.448 132.166 27.224 131.206 26.776C130.267 26.328 129.531 25.688 128.998 24.856C128.486 24.024 128.23 23.0213 128.23 21.848C128.23 20.568 128.539 19.5227 129.158 18.712C129.798 17.9013 130.683 17.2933 131.814 16.888C132.966 16.4827 134.31 16.28 135.846 16.28H139.878V18.936H135.782C134.758 18.936 133.969 19.192 133.414 19.704C132.881 20.1947 132.614 20.8347 132.614 21.624C132.614 22.4133 132.881 23.0533 133.414 23.544C133.969 24.0347 134.758 24.28 135.782 24.28C136.401 24.28 136.966 24.1733 137.478 23.96C138.011 23.7253 138.449 23.3413 138.79 22.808C139.153 22.2533 139.355 21.5067 139.398 20.568L140.486 21.816C140.379 23.032 140.081 24.056 139.59 24.888C139.121 25.72 138.459 26.36 137.606 26.808C136.774 27.2347 135.75 27.448 134.534 27.448Z" fill="#242426"/>
</svg>
