<svg width="156" height="37" viewBox="0 0 156 37" fill="none" xmlns="http://www.w3.org/2000/svg">
<path d="M32.7892 10.6928C32.2747 9.40393 30.7292 8.87807 29.5355 9.58576L29.3459 9.69816C28.3741 10.2743 28.0058 11.4683 28.4178 12.5201C28.9737 13.9389 29.2627 15.4589 29.2627 17.0001C29.2627 22.9518 25.0008 27.9267 19.3683 29.0332V19.3687H22.2644C23.5726 19.3687 24.6331 18.3082 24.6331 17C24.6331 15.6919 23.5727 14.6314 22.2644 14.6314H19.3683V0H16.9997C7.62583 0 0 7.62608 0 17C0 19.052 0.371294 21.0817 1.08589 22.9853C1.59631 24.3449 3.22017 24.9079 4.47897 24.184C5.49746 23.5983 5.90686 22.3644 5.49933 21.2625C5.27193 20.6477 5.10122 20.0131 4.97478 19.3686H14.6311V34H16.9998C26.3737 34 34 26.374 34 17C33.9999 14.8295 33.5857 12.6884 32.7892 10.6928ZM4.97396 14.6315C5.93073 9.76694 9.76652 5.92271 14.6311 4.96692V14.6315H4.97396Z" fill="#E94625"/>
<path d="M27.0891 7.80871C28.4415 7.80871 29.5377 6.71247 29.5377 5.36019C29.5377 4.00791 28.4415 2.91162 27.0891 2.91162C25.7369 2.91162 24.6406 4.00791 24.6406 5.36019C24.6406 6.71247 25.7369 7.80871 27.0891 7.80871Z" fill="#E94625"/>
<path d="M43.9157 29L52.3817 4.18H60.2697L68.9737 29H64.0097L56.6317 7.478L58.3657 8.226H54.1157L55.8837 7.478L48.7437 29H43.9157ZM49.8317 22.404L51.3617 18.324H61.4257L62.9217 22.404H49.8317ZM72.1081 29V10.538H76.8341V29H72.1081ZM69.5241 14.074V10.538H76.8341V14.074H69.5241ZM73.8421 8.328C72.9128 8.328 72.2214 8.09 71.7681 7.614C71.3374 7.11533 71.1221 6.50333 71.1221 5.778C71.1221 5.00733 71.3374 4.384 71.7681 3.908C72.2214 3.432 72.9128 3.194 73.8421 3.194C74.7714 3.194 75.4514 3.432 75.8821 3.908C76.3128 4.384 76.5281 5.00733 76.5281 5.778C76.5281 6.50333 76.3128 7.11533 75.8821 7.614C75.4514 8.09 74.7714 8.328 73.8421 8.328ZM88.4262 36.276C87.5422 36.276 86.6356 36.242 85.7062 36.174C84.7996 36.106 83.9496 36.0153 83.1562 35.902V31.958C83.9722 32.0487 84.8449 32.128 85.7742 32.196C86.7036 32.2867 87.5762 32.332 88.3922 32.332C89.9109 32.332 91.1349 32.1507 92.0642 31.788C93.0162 31.4253 93.7076 30.8473 94.1382 30.054C94.5916 29.2833 94.8182 28.2973 94.8182 27.096V23.458L95.8382 21.146C95.7702 22.846 95.4189 24.2967 94.7842 25.498C94.1496 26.6767 93.2882 27.5833 92.2002 28.218C91.1122 28.83 89.8542 29.136 88.4262 29.136C87.1569 29.136 86.0009 28.898 84.9582 28.422C83.9382 27.946 83.0542 27.2887 82.3062 26.45C81.5809 25.6113 81.0142 24.6253 80.6062 23.492C80.1982 22.3587 79.9942 21.146 79.9942 19.854V19.14C79.9942 17.848 80.1982 16.6467 80.6062 15.536C81.0369 14.4027 81.6376 13.4167 82.4082 12.578C83.1789 11.7393 84.0969 11.0933 85.1622 10.64C86.2276 10.1867 87.4062 9.96 88.6982 9.96C90.2169 9.96 91.5316 10.2887 92.6422 10.946C93.7756 11.6033 94.6596 12.5553 95.2942 13.802C95.9289 15.0487 96.2802 16.5787 96.3482 18.392L95.5322 18.528V10.538H99.2722V26.824C99.2722 29.068 98.8869 30.8813 98.1162 32.264C97.3456 33.6467 96.1556 34.6553 94.5462 35.29C92.9596 35.9473 90.9196 36.276 88.4262 36.276ZM89.7862 25.09C90.6929 25.09 91.5202 24.886 92.2682 24.478C93.0162 24.07 93.6169 23.4807 94.0702 22.71C94.5236 21.9393 94.7502 21.01 94.7502 19.922V18.732C94.7502 17.6893 94.5122 16.8053 94.0362 16.08C93.5829 15.3547 92.9822 14.8107 92.2342 14.448C91.4862 14.0627 90.6702 13.87 89.7862 13.87C88.7889 13.87 87.9049 14.108 87.1342 14.584C86.3862 15.0373 85.7969 15.6833 85.3662 16.522C84.9356 17.3607 84.7202 18.358 84.7202 19.514C84.7202 20.6473 84.9356 21.6333 85.3662 22.472C85.7969 23.3107 86.3862 23.9567 87.1342 24.41C87.9049 24.8633 88.7889 25.09 89.7862 25.09ZM112.239 29.646C110.607 29.646 109.167 29.3853 107.921 28.864C106.674 28.3427 105.62 27.64 104.759 26.756C103.897 25.8493 103.24 24.8293 102.787 23.696C102.356 22.5627 102.141 21.384 102.141 20.16V19.446C102.141 18.1767 102.367 16.9753 102.821 15.842C103.297 14.686 103.965 13.666 104.827 12.782C105.711 11.8753 106.776 11.1727 108.023 10.674C109.269 10.1527 110.675 9.892 112.239 9.892C113.803 9.892 115.208 10.1527 116.455 10.674C117.701 11.1727 118.755 11.8753 119.617 12.782C120.501 13.666 121.169 14.686 121.623 15.842C122.076 16.9753 122.303 18.1767 122.303 19.446V20.16C122.303 21.384 122.076 22.5627 121.623 23.696C121.192 24.8293 120.546 25.8493 119.685 26.756C118.823 27.64 117.769 28.3427 116.523 28.864C115.276 29.3853 113.848 29.646 112.239 29.646ZM112.239 25.6C113.395 25.6 114.369 25.3507 115.163 24.852C115.956 24.3307 116.557 23.6393 116.965 22.778C117.373 21.894 117.577 20.8967 117.577 19.786C117.577 18.6527 117.361 17.6553 116.931 16.794C116.523 15.91 115.911 15.2187 115.095 14.72C114.301 14.1987 113.349 13.938 112.239 13.938C111.128 13.938 110.165 14.1987 109.349 14.72C108.555 15.2187 107.943 15.91 107.513 16.794C107.082 17.6553 106.867 18.6527 106.867 19.786C106.867 20.8967 107.071 21.894 107.479 22.778C107.909 23.6393 108.521 24.3307 109.315 24.852C110.108 25.3507 111.083 25.6 112.239 25.6ZM125.378 29V10.538H129.118V18.358H129.016C129.016 15.706 129.583 13.7 130.716 12.34C131.85 10.98 133.516 10.3 135.714 10.3H136.394V14.414H135.102C133.516 14.414 132.28 14.8447 131.396 15.706C130.535 16.5447 130.104 17.7687 130.104 19.378V29H125.378ZM149.58 29V23.526H148.798V17.44C148.798 16.3747 148.537 15.5813 148.016 15.06C147.495 14.5387 146.69 14.278 145.602 14.278C145.035 14.278 144.355 14.2893 143.562 14.312C142.769 14.3347 141.964 14.3687 141.148 14.414C140.355 14.4367 139.641 14.4707 139.006 14.516V10.504C139.527 10.4587 140.117 10.4133 140.774 10.368C141.431 10.3227 142.1 10.3 142.78 10.3C143.483 10.2773 144.14 10.266 144.752 10.266C146.656 10.266 148.231 10.5153 149.478 11.014C150.747 11.5127 151.699 12.2947 152.334 13.36C152.991 14.4253 153.32 15.8193 153.32 17.542V29H149.58ZM143.63 29.476C142.293 29.476 141.114 29.238 140.094 28.762C139.097 28.286 138.315 27.606 137.748 26.722C137.204 25.838 136.932 24.7727 136.932 23.526C136.932 22.166 137.261 21.0553 137.918 20.194C138.598 19.3327 139.539 18.6867 140.74 18.256C141.964 17.8253 143.392 17.61 145.024 17.61H149.308V20.432H144.956C143.868 20.432 143.029 20.704 142.44 21.248C141.873 21.7693 141.59 22.4493 141.59 23.288C141.59 24.1267 141.873 24.8067 142.44 25.328C143.029 25.8493 143.868 26.11 144.956 26.11C145.613 26.11 146.214 25.9967 146.758 25.77C147.325 25.5207 147.789 25.1127 148.152 24.546C148.537 23.9567 148.753 23.1633 148.798 22.166L149.954 23.492C149.841 24.784 149.523 25.872 149.002 26.756C148.503 27.64 147.801 28.32 146.894 28.796C146.01 29.2493 144.922 29.476 143.63 29.476Z" fill="white"/>
</svg>
