<svg width="181" height="43" viewBox="0 0 181 43" fill="none" xmlns="http://www.w3.org/2000/svg">
<path d="M38.5755 12.5797C37.9702 11.0634 36.152 10.4448 34.7476 11.2774L34.5246 11.4096C33.3813 12.0874 32.9479 13.4921 33.4327 14.7295C34.0866 16.3987 34.4267 18.1869 34.4267 20.0001C34.4267 27.0022 29.4127 32.855 22.7863 34.1568V22.7867H26.1934C27.7324 22.7867 28.9801 21.5391 28.9801 20C28.9801 18.4611 27.7325 17.2134 26.1934 17.2134H22.7863V0H19.9996C8.97156 0 0 8.97186 0 20C0 22.4141 0.436816 24.802 1.27751 27.0415C1.87801 28.641 3.78843 29.3034 5.26938 28.4518C6.46761 27.7627 6.94924 26.3111 6.4698 25.0147C6.20227 24.2915 6.00144 23.5449 5.85268 22.7866H17.2131V40H19.9997C31.0279 40 40 31.0282 40 20C39.9999 17.4464 39.5126 14.9275 38.5755 12.5797ZM5.85172 17.2135C6.97733 11.4905 11.49 6.9679 17.2131 5.84343V17.2135H5.85172Z" fill="#242426"/>
<path d="M38.5755 12.5797C37.9702 11.0634 36.152 10.4448 34.7476 11.2774L34.5246 11.4096C33.3813 12.0874 32.9479 13.4921 33.4327 14.7295C34.0866 16.3987 34.4267 18.1869 34.4267 20.0001C34.4267 27.0022 29.4127 32.855 22.7863 34.1568V22.7867H26.1934C27.7324 22.7867 28.9801 21.5391 28.9801 20C28.9801 18.4611 27.7325 17.2134 26.1934 17.2134H22.7863V0H19.9996C8.97156 0 0 8.97186 0 20C0 22.4141 0.436816 24.802 1.27751 27.0415C1.87801 28.641 3.78843 29.3034 5.26938 28.4518C6.46761 27.7627 6.94924 26.3111 6.4698 25.0147C6.20227 24.2915 6.00144 23.5449 5.85268 22.7866H17.2131V40H19.9997C31.0279 40 40 31.0282 40 20C39.9999 17.4464 39.5126 14.9275 38.5755 12.5797ZM5.85172 17.2135C6.97733 11.4905 11.49 6.9679 17.2131 5.84343V17.2135H5.85172Z" fill="url(#paint0_linear_18876_1452)"/>
<path d="M31.8806 9.18706C33.4716 9.18706 34.7612 7.89737 34.7612 6.30645C34.7612 4.71553 33.4716 3.42578 31.8806 3.42578C30.2898 3.42578 29 4.71553 29 6.30645C29 7.89737 30.2898 9.18706 31.8806 9.18706Z" fill="#242426"/>
<path d="M31.8806 9.18706C33.4716 9.18706 34.7612 7.89737 34.7612 6.30645C34.7612 4.71553 33.4716 3.42578 31.8806 3.42578C30.2898 3.42578 29 4.71553 29 6.30645C29 7.89737 30.2898 9.18706 31.8806 9.18706Z" fill="url(#paint1_linear_18876_1452)"/>
<path d="M52.9817 34L62.9417 4.8H72.2217L82.4617 34H76.6217L67.9417 8.68L69.9817 9.56H64.9817L67.0617 8.68L58.6617 34H52.9817ZM59.9417 26.24L61.7417 21.44H73.5817L75.3417 26.24H59.9417ZM85.3992 34V12.28H90.9592V34H85.3992ZM82.3592 16.44V12.28H90.9592V16.44H82.3592ZM87.4392 9.68C86.3459 9.68 85.5326 9.4 84.9992 8.84C84.4926 8.25333 84.2392 7.53333 84.2392 6.68C84.2392 5.77333 84.4926 5.04 84.9992 4.48C85.5326 3.92 86.3459 3.64 87.4392 3.64C88.5326 3.64 89.3326 3.92 89.8392 4.48C90.3459 5.04 90.5992 5.77333 90.5992 6.68C90.5992 7.53333 90.3459 8.25333 89.8392 8.84C89.3326 9.4 88.5326 9.68 87.4392 9.68ZM103.847 42.56C102.807 42.56 101.74 42.52 100.647 42.44C99.5804 42.36 98.5804 42.2533 97.647 42.12V37.48C98.607 37.5867 99.6337 37.68 100.727 37.76C101.82 37.8667 102.847 37.92 103.807 37.92C105.594 37.92 107.034 37.7067 108.127 37.28C109.247 36.8533 110.06 36.1733 110.567 35.24C111.1 34.3333 111.367 33.1733 111.367 31.76V27.48L112.567 24.76C112.487 26.76 112.074 28.4667 111.327 29.88C110.58 31.2667 109.567 32.3333 108.287 33.08C107.007 33.8 105.527 34.16 103.847 34.16C102.354 34.16 100.994 33.88 99.767 33.32C98.567 32.76 97.527 31.9867 96.647 31C95.7937 30.0133 95.127 28.8533 94.647 27.52C94.167 26.1867 93.927 24.76 93.927 23.24V22.4C93.927 20.88 94.167 19.4667 94.647 18.16C95.1537 16.8267 95.8604 15.6667 96.767 14.68C97.6737 13.6933 98.7537 12.9333 100.007 12.4C101.26 11.8667 102.647 11.6 104.167 11.6C105.954 11.6 107.5 11.9867 108.807 12.76C110.14 13.5333 111.18 14.6533 111.927 16.12C112.674 17.5867 113.087 19.3867 113.167 21.52L112.207 21.68V12.28H116.607V31.44C116.607 34.08 116.154 36.2133 115.247 37.84C114.34 39.4667 112.94 40.6533 111.047 41.4C109.18 42.1733 106.78 42.56 103.847 42.56ZM105.447 29.4C106.514 29.4 107.487 29.16 108.367 28.68C109.247 28.2 109.954 27.5067 110.487 26.6C111.02 25.6933 111.287 24.6 111.287 23.32V21.92C111.287 20.6933 111.007 19.6533 110.447 18.8C109.914 17.9467 109.207 17.3067 108.327 16.88C107.447 16.4267 106.487 16.2 105.447 16.2C104.274 16.2 103.234 16.48 102.327 17.04C101.447 17.5733 100.754 18.3333 100.247 19.32C99.7404 20.3067 99.487 21.48 99.487 22.84C99.487 24.1733 99.7404 25.3333 100.247 26.32C100.754 27.3067 101.447 28.0667 102.327 28.6C103.234 29.1333 104.274 29.4 105.447 29.4ZM131.112 34.76C129.192 34.76 127.498 34.4533 126.032 33.84C124.565 33.2267 123.325 32.4 122.312 31.36C121.298 30.2933 120.525 29.0933 119.992 27.76C119.485 26.4267 119.232 25.04 119.232 23.6V22.76C119.232 21.2667 119.498 19.8533 120.032 18.52C120.592 17.16 121.378 15.96 122.392 14.92C123.432 13.8533 124.685 13.0267 126.152 12.44C127.618 11.8267 129.272 11.52 131.112 11.52C132.952 11.52 134.605 11.8267 136.072 12.44C137.538 13.0267 138.778 13.8533 139.792 14.92C140.832 15.96 141.618 17.16 142.152 18.52C142.685 19.8533 142.952 21.2667 142.952 22.76V23.6C142.952 25.04 142.685 26.4267 142.152 27.76C141.645 29.0933 140.885 30.2933 139.872 31.36C138.858 32.4 137.618 33.2267 136.152 33.84C134.685 34.4533 133.005 34.76 131.112 34.76ZM131.112 30C132.472 30 133.618 29.7067 134.552 29.12C135.485 28.5067 136.192 27.6933 136.672 26.68C137.152 25.64 137.392 24.4667 137.392 23.16C137.392 21.8267 137.138 20.6533 136.632 19.64C136.152 18.6 135.432 17.7867 134.472 17.2C133.538 16.5867 132.418 16.28 131.112 16.28C129.805 16.28 128.672 16.5867 127.712 17.2C126.778 17.7867 126.058 18.6 125.552 19.64C125.045 20.6533 124.792 21.8267 124.792 23.16C124.792 24.4667 125.032 25.64 125.512 26.68C126.018 27.6933 126.738 28.5067 127.672 29.12C128.605 29.7067 129.752 30 131.112 30ZM145.82 34V12.28H150.22V21.48H150.1C150.1 18.36 150.767 16 152.1 14.4C153.433 12.8 155.393 12 157.98 12H158.78V16.84H157.26C155.393 16.84 153.94 17.3467 152.9 18.36C151.887 19.3467 151.38 20.7867 151.38 22.68V34H145.82ZM173.543 34V27.56H172.623V20.4C172.623 19.1467 172.316 18.2133 171.703 17.6C171.089 16.9867 170.143 16.68 168.863 16.68C168.196 16.68 167.396 16.6933 166.463 16.72C165.529 16.7467 164.583 16.7867 163.623 16.84C162.689 16.8667 161.849 16.9067 161.103 16.96V12.24C161.716 12.1867 162.409 12.1333 163.183 12.08C163.956 12.0267 164.743 12 165.543 12C166.369 11.9733 167.143 11.96 167.863 11.96C170.103 11.96 171.956 12.2533 173.423 12.84C174.916 13.4267 176.036 14.3467 176.783 15.6C177.556 16.8533 177.943 18.4933 177.943 20.52V34H173.543ZM166.543 34.56C164.969 34.56 163.583 34.28 162.383 33.72C161.209 33.16 160.289 32.36 159.623 31.32C158.983 30.28 158.663 29.0267 158.663 27.56C158.663 25.96 159.049 24.6533 159.823 23.64C160.623 22.6267 161.729 21.8667 163.143 21.36C164.583 20.8533 166.263 20.6 168.183 20.6H173.223V23.92H168.103C166.823 23.92 165.836 24.24 165.143 24.88C164.476 25.4933 164.143 26.2933 164.143 27.28C164.143 28.2667 164.476 29.0667 165.143 29.68C165.836 30.2933 166.823 30.6 168.103 30.6C168.876 30.6 169.583 30.4667 170.223 30.2C170.889 29.9067 171.436 29.4267 171.863 28.76C172.316 28.0667 172.569 27.1333 172.623 25.96L173.983 27.52C173.849 29.04 173.476 30.32 172.863 31.36C172.276 32.4 171.449 33.2 170.383 33.76C169.343 34.2933 168.063 34.56 166.543 34.56Z" fill="white"/>
<defs>
<linearGradient id="paint0_linear_18876_1452" x1="0" y1="20" x2="40" y2="20" gradientUnits="userSpaceOnUse">
<stop stop-color="#2CBDD2"/>
<stop offset="1" stop-color="#6D6BDF"/>
</linearGradient>
<linearGradient id="paint1_linear_18876_1452" x1="29" y1="6.30642" x2="34.7612" y2="6.30642" gradientUnits="userSpaceOnUse">
<stop stop-color="#2CBDD2"/>
<stop offset="1" stop-color="#6D6BDF"/>
</linearGradient>
</defs>
</svg>
